<?xml version="1.0" encoding="UTF-8" standalone="no"?>
<svg
   xmlns:dc="http://purl.org/dc/elements/1.1/"
   xmlns:cc="http://creativecommons.org/ns#"
   xmlns:rdf="http://www.w3.org/1999/02/22-rdf-syntax-ns#"
   xmlns:svg="http://www.w3.org/2000/svg"
   xmlns="http://www.w3.org/2000/svg"
   viewBox="0 0 213.33333 213.33333"
   height="213.33333"
   width="213.33333"
   xml:space="preserve"
   id="svg2"
   version="1.1"><metadata
     id="metadata8"><rdf:RDF><cc:Work
         rdf:about=""><dc:format>image/svg+xml</dc:format><dc:type
           rdf:resource="http://purl.org/dc/dcmitype/StillImage" /></cc:Work></rdf:RDF></metadata><defs
     id="defs6"><clipPath
       id="clipPath22"
       clipPathUnits="userSpaceOnUse"><path
         id="path20"
         d="m 800,0 h 800 V 1600 H 800 Z" /></clipPath><linearGradient
       id="linearGradient28"
       spreadMethod="pad"
       gradientTransform="matrix(1e-7,-1361.02,-1361.02,-1e-7,1200,1345.22)"
       gradientUnits="userSpaceOnUse"
       y2="0"
       x2="1"
       y1="0"
       x1="0"><stop
         id="stop24"
         offset="0"
         style="stop-opacity:1;stop-color:#ea3837" /><stop
         id="stop26"
         offset="1"
         style="stop-opacity:1;stop-color:#df3635" /></linearGradient></defs><g
     transform="matrix(1.3333333,0,0,-1.3333333,0,213.33333)"
     id="g10"><g
       transform="scale(0.1)"
       id="g12"><path
         id="path14"
         style="fill:#ea3837;fill-opacity:1;fill-rule:nonzero;stroke:none"
         d="M 0,0 H 1600 V 1600 H 0 Z" /><g
         id="g16"><g
           clip-path="url(#clipPath22)"
           id="g18"><path
             id="path30"
             style="fill:url(#linearGradient28);fill-opacity:1;fill-rule:nonzero;stroke:none"
             d="m 800,0 h 800 V 1600 H 800 Z" /></g></g><path
         id="path32"
         style="fill:#100f0d;fill-opacity:1;fill-rule:nonzero;stroke:none"
         d="m 306.973,218.809 -20.008,58.929 -20.024,-58.929 z m 58.132,-66.411 h -28.003 c -5.891,0 -8,1.563 -10.098,7.981 l -7.473,21.062 h -65.383 l -7.476,-21.062 c -2.121,-6.418 -4.289,-7.981 -10.129,-7.981 h -28.008 c -5.871,0 -5.871,4.274 -4.551,7.434 l 59.219,159.816 c 2.129,5.622 5.067,8.262 10.945,8.262 h 25.598 c 5.859,0 8.535,-2.64 10.938,-8.262 l 58.984,-159.816 c 1.328,-3.16 1.328,-7.434 -4.563,-7.434" /><path
         id="path34"
         style="fill:#100f0d;fill-opacity:1;fill-rule:nonzero;stroke:none"
         d="m 449.895,148.371 c -31.719,0 -71.45,18.391 -71.45,60.277 v 62.954 c 0,41.91 39.731,60.277 71.45,60.277 33.125,0 65.918,-16.789 69.39,-50.66 0,-6.418 -2.137,-7.739 -8.269,-7.739 h -25.594 c -5.609,0 -5.902,5.09 -8.02,8.301 -5.605,8.797 -13.054,12.739 -27.507,12.739 -17.59,0 -29.59,-9.84 -29.59,-26.641 V 212.41 c 0,-17.09 12,-26.711 29.59,-26.711 14.453,0 25.898,5.352 28.043,18.18 0.8,5.332 1.332,9.601 7.199,9.601 h 26.113 c 5.898,0 8.035,-2.652 8.035,-9.082 0,-34.437 -36.265,-56.027 -69.39,-56.027" /><path
         id="path36"
         style="fill:#100f0d;fill-opacity:1;fill-rule:nonzero;stroke:none"
         d="m 636.902,218.809 -20.015,58.929 -19.985,-58.929 z m 58.157,-66.411 h -27.996 c -5.879,0 -7.993,1.563 -10.168,7.981 l -7.469,21.062 h -65.324 l -7.469,-21.062 c -2.153,-6.418 -4.278,-7.981 -10.141,-7.981 h -28.008 c -5.886,0 -5.886,4.274 -4.558,7.434 l 59.226,159.816 c 2.141,5.622 5.09,8.262 10.95,8.262 h 25.605 c 5.859,0 8.535,-2.64 10.938,-8.262 l 58.957,-159.816 c 1.336,-3.16 1.336,-7.434 -4.543,-7.434" /><path
         id="path38"
         style="fill:#100f0d;fill-opacity:1;fill-rule:nonzero;stroke:none"
         d="m 822.02,264.16 c 0,16.801 -12.262,26.641 -29.872,26.641 h -25.585 v -101.36 h 25.585 c 17.61,0 29.872,9.618 29.872,26.719 z m 41.875,3.719 V 212.41 c 0,-41.922 -39.977,-60.012 -71.747,-60.012 h -59.746 c -6.125,0 -7.734,2.934 -7.734,7.711 v 160.082 c 0,4.797 1.609,7.719 7.734,7.719 h 59.746 c 31.77,0 71.747,-18.398 71.747,-60.031" /><path
         id="path40"
         style="fill:#100f0d;fill-opacity:1;fill-rule:nonzero;stroke:none"
         d="m 1029.02,182.012 v -21.903 c 0,-4.777 -1.64,-7.711 -7.76,-7.711 H 901.758 c -6.133,0 -7.715,2.934 -7.715,7.711 v 160.082 c 0,4.797 1.582,7.719 7.715,7.719 h 114.982 c 6.15,0 7.72,-2.922 7.72,-7.719 v -22.179 c 0,-4.813 -1.57,-7.711 -7.72,-7.711 H 936.199 V 261.23 h 71.471 c 6.13,0 7.72,-2.929 7.72,-7.742 V 232.68 c 0,-4.809 -1.59,-7.789 -7.72,-7.789 h -71.471 v -35.172 h 85.061 c 6.12,0 7.76,-2.93 7.76,-7.707" /><path
         id="path42"
         style="fill:#100f0d;fill-opacity:1;fill-rule:nonzero;stroke:none"
         d="M 1227.73,320.43 V 160.109 c 0,-6.148 -2.96,-7.711 -7.7,-7.711 h -25.63 c -4.79,0 -7.73,1.563 -7.73,7.711 v 90.442 l -26.71,-46.672 c -1.34,-2.149 -3.74,-5.629 -7.69,-5.629 h -13.35 c -4.03,0 -6.16,3.48 -7.5,5.629 l -26.95,46.672 v -90.442 c 0,-6.148 -2.93,-7.711 -7.74,-7.711 h -26.4 c -4.76,0 -7.69,1.563 -7.69,7.711 V 320.43 c 0,4.84 1.57,7.711 7.69,7.711 h 26.4 c 9.09,0 10.16,-5.84 12.31,-9.051 l 36.57,-65.602 36.77,65.602 c 1.9,3.211 3.21,9.051 12.02,9.051 h 25.63 c 6.08,0 7.7,-2.871 7.7,-7.711" /><path
         id="path44"
         style="fill:#100f0d;fill-opacity:1;fill-rule:nonzero;stroke:none"
         d="m 1395.79,320.43 -54.97,-102.141 v -58.18 c 0,-6.148 -2.93,-7.711 -7.73,-7.711 h -26.66 c -5.08,0 -7.77,1.563 -7.77,7.711 v 58.18 l -57.08,102.141 c -1.33,2.941 -0.81,7.48 4.25,7.48 h 30.7 c 6.14,0 8.8,-0.82 12.53,-8.019 l 31.2,-57.352 30.19,57.352 c 3.47,7.199 6.09,8.019 12.26,8.019 h 28.81 c 5.08,0 5.61,-4.539 4.27,-7.48" /><path
         id="path46"
         style="fill:#ffffff;fill-opacity:1;fill-rule:nonzero;stroke:none"
         d="m 453.895,715.898 c 0,42.618 -31.161,67.696 -75.829,67.696 H 313.027 V 526.281 h 65.039 c 44.668,0 75.829,24.399 75.829,67.699 z m 106.3,9.461 V 584.5 c 0,-106.301 -101.574,-152.328 -182.129,-152.328 H 226.379 c -15.566,0 -19.633,7.476 -19.633,19.668 v 406.195 c 0,12.246 4.067,19.699 19.633,19.699 h 151.687 c 80.555,0 182.129,-46.738 182.129,-152.375" /><path
         id="path48"
         style="fill:#ffffff;fill-opacity:1;fill-rule:nonzero;stroke:none"
         d="m 952.18,507.34 v -55.5 c 0,-12.192 -4.075,-19.668 -19.629,-19.668 H 629.219 c -15.586,0 -19.649,7.476 -19.649,19.668 v 406.195 c 0,12.246 4.063,19.699 19.649,19.699 h 291.789 c 15.633,0 19.656,-7.453 19.656,-19.699 v -56.187 c 0,-12.16 -4.023,-19.614 -19.656,-19.614 H 716.563 V 708.438 H 898.02 c 15.554,0 19.625,-7.469 19.625,-19.676 v -52.785 c 0,-12.188 -4.071,-19.649 -19.625,-19.649 H 716.563 v -89.34 h 215.988 c 15.554,0 19.629,-7.457 19.629,-19.648" /><path
         id="path50"
         style="fill:#ffffff;fill-opacity:1;fill-rule:nonzero;stroke:none"
         d="M 1391.6,858.035 1246.65,452.469 c -8.05,-17.578 -12.83,-20.297 -27.73,-20.297 h -65 c -14.89,0 -19.63,2.719 -27.75,20.297 L 980.605,858.035 c -3.398,8.828 -0.695,19.699 12.149,19.699 h 75.186 c 17.58,0 22.33,-5.437 27.73,-21.699 l 92.11,-280.336 91.4,280.336 c 5.4,16.262 10.19,21.699 28.44,21.699 h 71.76 c 12.9,0 15.61,-10.871 12.22,-19.699" /><path
         id="path52"
         style="fill:#cdccca;fill-opacity:1;fill-rule:nonzero;stroke:none"
         d="M 0,1602.38 H 1600 V 1407.5 L 779.199,1214.06 0,1404.06 v 198.32" /><path
         id="path54"
         style="fill:#100f0d;fill-opacity:1;fill-rule:nonzero;stroke:none"
         d="m 647.422,1291.44 c 1.473,4.3 1.91,8.61 1.047,12.75 -1.305,5.75 -4.196,9.8 -8.914,12.18 -4.711,2.33 -10.785,2.71 -18.102,1.18 -5.637,-1.18 -10.762,-3.1 -15.242,-5.67 -4.363,-2.66 -8.301,-5.73 -11.539,-9.25 -3.266,-3.56 -6.016,-7.46 -8.242,-11.72 -2.137,-4.19 -3.789,-8.53 -4.977,-12.95 -1.098,-4.4 -1.762,-8.8 -1.848,-13.23 -0.148,-4.45 0.176,-8.52 0.981,-12.43 1.156,-5.35 3.008,-9.8 5.609,-13.47 2.723,-3.62 5.907,-6.43 9.547,-8.45 3.699,-1.9 7.696,-3.15 12.207,-3.58 4.395,-0.41 8.965,-0.15 13.676,0.9 5.266,1.06 9.66,2.62 13.246,4.59 3.613,1.94 6.481,3.99 8.563,6.27 2.109,2.29 3.586,4.58 4.308,6.92 0.754,2.25 0.926,4.33 0.578,6.25 -0.257,1.36 -0.722,2.48 -1.3,3.64 -0.637,1.09 -1.243,1.97 -1.997,2.63 -0.867,-1.79 -1.738,-3.68 -3.035,-5.44 -1.187,-1.82 -2.633,-3.53 -4.394,-5.09 -1.594,-1.65 -3.473,-2.98 -5.641,-4.19 -2.086,-1.25 -4.371,-2.08 -6.887,-2.64 -5.609,-1.18 -10.148,-0.43 -13.621,2.17 -3.382,2.7 -5.754,7 -7.027,13.02 -0.23,0.9 -0.434,1.83 -0.578,2.89 -0.172,1.05 -0.262,2.09 -0.402,3.07 0.98,0.14 1.96,0.26 3.007,0.52 1.039,0.2 1.961,0.4 2.801,0.61 6.598,1.36 12.527,3.53 17.789,6.44 5.266,2.9 9.57,6.17 13.07,9.96 3.415,3.79 5.813,7.8 7.317,12.12 z m 5.211,-143.23 c 0.953,3.73 0.953,7.7 0,11.84 -0.555,2.83 -1.535,5.38 -2.778,7.58 -1.277,2.17 -2.835,4.07 -4.832,5.78 -1.996,1.68 -4.371,3.01 -7.171,4.25 -2.75,1.19 -5.926,2.14 -9.516,2.95 -3.297,0.75 -6.156,1.44 -8.617,2.09 -2.399,0.57 -4.367,1.29 -6.074,2.07 -1.707,0.82 -2.981,1.76 -3.961,2.9 -0.84,1.12 -1.536,2.54 -1.942,4.24 -0.199,1.51 -0.199,3.01 0.09,4.4 0.316,1.47 0.895,2.81 1.793,4.02 0.98,1.24 2.168,2.26 3.527,3.19 1.536,0.95 3.27,1.62 5.266,2.05 2.168,0.45 4.164,0.29 5.867,-0.43 1.766,-0.78 3.297,-1.92 4.602,-3.36 1.301,-1.57 2.367,-3.27 3.148,-5.3 0.84,-2.02 1.504,-4.04 1.91,-6.13 5.469,1.19 9.633,3.01 12.379,5.56 2.719,2.55 3.676,5.87 2.778,9.95 -0.348,1.91 -1.274,3.64 -2.575,5.2 -1.386,1.54 -3.242,2.78 -5.757,3.56 -2.512,0.93 -5.668,1.42 -9.368,1.44 -3.82,0.07 -8.183,-0.45 -13.418,-1.56 -5.351,-1.12 -10.035,-2.83 -14.144,-4.85 -3.992,-2.03 -7.317,-4.41 -9.86,-7.21 -2.574,-2.74 -4.339,-5.87 -5.324,-9.22 -0.957,-3.33 -1.039,-6.88 -0.258,-10.73 0.606,-3.01 1.704,-5.61 3.09,-7.87 1.45,-2.2 3.242,-4.1 5.352,-5.73 2.113,-1.64 4.57,-3 7.293,-4.08 2.769,-1.09 5.777,-2.02 9.019,-2.86 3.414,-0.78 6.246,-1.56 8.68,-2.22 2.426,-0.67 4.453,-1.45 6.129,-2.29 1.707,-0.92 3.035,-2.02 3.965,-3.21 0.922,-1.24 1.613,-2.69 1.961,-4.46 0.406,-1.87 0.406,-3.58 -0.055,-5.23 -0.434,-1.56 -1.215,-3.01 -2.371,-4.25 -1.039,-1.3 -2.434,-2.37 -4.106,-3.27 -1.71,-0.87 -3.644,-1.59 -5.73,-2.02 -2.746,-0.66 -5.262,-0.57 -7.461,0.21 -2.168,0.69 -4.019,1.87 -5.578,3.58 -1.652,1.65 -3.012,3.73 -4.168,6.13 -1.012,2.44 -1.82,5 -2.453,7.81 -1.969,-0.46 -4.027,-1.1 -5.789,-2.03 -1.938,-0.93 -3.5,-2.05 -4.77,-3.34 -1.304,-1.43 -2.312,-3.01 -2.953,-4.9 -0.578,-1.82 -0.578,-3.99 -0.172,-6.41 0.574,-2.7 1.821,-4.99 3.614,-6.74 1.796,-1.83 4.164,-3.22 6.945,-4.14 2.859,-0.96 6.101,-1.42 9.887,-1.42 3.734,0 7.839,0.46 12.207,1.42 6.183,1.38 11.425,3.09 15.82,5.32 4.394,2.22 7.926,4.78 10.613,7.78 2.688,3.01 4.426,6.36 5.266,9.94 z m 91.472,37.69 c 0.84,4.71 1.278,9.29 1.215,13.8 0,4.45 -0.433,8.55 -1.156,12.23 -1.016,4.65 -2.344,8.56 -4.105,11.77 -1.879,3.27 -3.907,5.84 -6.422,7.82 -2.43,1.96 -5.145,3.25 -8.184,3.89 -3.008,0.61 -6.25,0.56 -9.574,-0.12 -3.816,-0.83 -6.996,-2.08 -9.656,-3.77 -2.606,-1.72 -4.891,-3.75 -6.711,-6.23 -1.797,-2.43 -3.414,-5.23 -4.715,-8.3 -1.242,-3.15 -2.399,-6.56 -3.559,-10.15 l -0.925,21.37 -33.52,-7.12 v -8.7 l 3.094,0.84 c 1.476,0.29 2.718,0.52 3.761,0.55 1.098,0.06 1.997,-0.03 2.719,-0.4 l 1.879,-1.71 c 0.465,-0.78 0.84,-1.88 1.188,-3.33 l 0.117,-0.98 0.14,-1.65 0.059,-2.08 v -100.24 l 32.828,6.94 v 6.74 c 0,0 -2.926,-0.52 -3.906,-0.58 -1.098,-0.08 -1.996,0.06 -2.75,0.37 l -1.879,1.66 c -0.488,0.78 -0.863,1.87 -1.07,3.33 l -0.231,0.97 -0.086,1.71 -0.117,2.08 v 17.56 c 2.195,-0.72 4.399,-1.19 7.203,-1.25 2.836,-0.08 5.867,0.26 8.965,0.9 5.234,1.1 9.949,3.09 13.969,5.9 4.019,2.75 7.492,6.01 10.41,9.8 2.926,3.82 5.234,7.99 7.004,12.56 1.82,4.54 3.207,9.16 4.015,13.82 z m 12.063,77.05 -3.73,6.21 -1.333,-0.98 c -1.21,-0.89 -2.546,-1.56 -4.195,-1.88 -1.765,-0.37 -3.211,0 -4.394,0.99 -1.129,0.98 -2.426,2.74 -2.891,4.97 -0.465,2.17 -0.871,4.83 -0.898,7.32 -0.141,2.54 -0.231,5.31 -0.141,8.24 l -0.09,17.32 c 0,1.39 0,2.9 0,4.48 0,1.62 0,3.18 -0.058,4.74 -0.032,1.62 -0.118,3.1 -0.258,4.63 -0.09,1.54 -0.293,2.98 -0.614,4.25 -0.488,2.35 -1.211,4.57 -2.308,6.6 -1.043,2 -2.43,3.68 -4.082,5 -1.735,1.33 -3.758,2.26 -6.242,2.75 -2.489,0.5 -5.325,0.41 -8.504,-0.29 -3.41,-0.72 -6.45,-1.73 -9.2,-3.03 -12.289,-6.28 -18.015,-21.58 -18.015,-21.58 l -0.895,17.04 -35.023,-7.37 v -8.63 l 3.18,0.66 c 1.418,0.33 2.746,0.49 3.789,0.61 1.039,0.06 1.937,-0.12 2.601,-0.37 l 1.938,-1.68 c 0.492,-0.78 0.84,-1.9 1.129,-3.33 l 0.144,-1.03 0.145,-1.66 0.054,-2.02 v -66.55 l 23.024,4.92 v 38.38 c 0,13.04 2.98,22.27 6.015,28.25 2.344,4.69 4.711,7.4 5.813,8.45 1.531,1.44 3.094,2.46 4.805,2.86 1.445,0.24 2.543,0.24 3.496,-0.15 0.925,-0.37 1.738,-0.94 2.312,-1.69 0.723,-0.75 1.278,-1.65 1.653,-2.73 0.343,-0.96 0.632,-1.93 0.953,-2.92 0.144,-1.3 0.402,-2.8 0.402,-4.37 0.176,-1.65 0.207,-3.27 0.289,-4.92 0,-1.64 0.09,-3.26 0.09,-4.79 0,-1.56 0,-2.86 0,-3.85 l 0.086,-12.81 c 0,-8.19 0.465,-14.52 1.328,-18.97 1.07,-4.98 3.473,-8.53 7.172,-10.73 3.73,-2.09 8.508,-2.55 14.465,-1.25 2.8,0.52 5.375,1.42 7.547,2.55 2.168,1.12 4.168,2.37 5.929,3.79 1.735,1.44 3.239,2.89 4.512,4.57 z m 31.957,7.14 c 0.52,1.82 0.52,3.67 0.113,5.89 -0.406,1.66 -1.07,3.07 -1.91,4.21 -0.98,1.09 -2.14,1.87 -3.406,2.45 -1.277,0.61 -2.723,0.87 -4.254,0.99 -1.563,0 -3.156,-0.18 -4.801,-0.52 -1.937,-0.38 -3.699,-1.05 -5.32,-1.95 -1.684,-0.78 -2.981,-1.9 -4.078,-3.2 -1.102,-1.25 -1.879,-2.84 -2.344,-4.6 -0.465,-1.71 -0.465,-3.73 0.059,-6.02 0.343,-1.62 0.98,-2.95 1.91,-3.99 0.832,-1.15 1.879,-1.9 3.09,-2.54 1.246,-0.53 2.66,-0.87 4.164,-0.99 1.535,-0.05 3.183,0.12 4.886,0.46 1.77,0.41 3.563,1.05 5.293,1.92 1.594,0.89 3.039,1.99 4.137,3.32 1.156,1.3 1.938,2.86 2.461,4.57 z m 19.145,-94.14 -4.747,4.46 c -1.531,-1.5 -2.859,-2.7 -4.078,-3.68 -1.215,-0.83 -2.66,-1.42 -4.304,-1.76 -1.653,-0.38 -3.067,0 -4.313,0.98 -1.183,1.04 -1.996,2.66 -2.484,4.92 -0.434,2.14 -0.696,4.51 -0.781,7.06 -0.176,2.48 -0.208,5.29 -0.208,8.24 l 0.149,52.55 -36.441,-7.72 v -8.66 l 3.097,0.73 c 1.473,0.32 2.692,0.52 3.731,0.58 1.039,0.09 1.996,0 2.75,-0.38 l 1.789,-1.71 c 0.488,-0.72 0.925,-1.81 1.187,-3.26 l 0.172,-0.99 0.086,-1.65 0.148,-2.07 v -32.28 c 0,-4.1 0.051,-7.7 0.29,-10.9 0.316,-3.15 0.605,-5.91 1.066,-8.07 1.043,-5 3.473,-8.56 7.144,-10.7 3.731,-2.12 8.559,-2.58 14.489,-1.34 2.804,0.62 5.32,1.45 7.519,2.58 2.196,1.1 4.106,2.35 5.871,3.76 1.707,1.47 3.239,3.04 4.567,4.6 1.304,1.65 2.375,3.2 3.301,4.71 z m 56.972,61.69 c 12.93,3.09 14.723,15.45 12.93,20.62 -4.399,12.64 -23.281,13.74 -33.754,-1.8 -6.68,-9.62 -6.879,-18.16 -6.879,-19.16 l -0.555,21.95 -34.64,-7.32 0.051,-8.65 3.125,0.72 c 2.921,0.64 5.066,0.64 6.511,0.06 1.446,-0.52 2.313,-1.76 2.742,-3.73 0.235,-1.13 0.438,-2.37 0.465,-3.81 0.059,-1.48 0.059,-2.61 0.086,-3.59 v -65.02 l 23.164,4.98 0.266,27.99 c 0.289,25.51 4.769,47.84 15.785,50.38 8.625,2.03 10.703,-13.62 10.703,-13.62 z m 109.086,-27.93 -4.738,5.49 c -1.387,-1.24 -2.633,-2.35 -3.906,-3.27 -1.184,-0.87 -2.489,-1.5 -3.93,-1.82 -1.652,-0.32 -3.039,0 -4.367,1.1 -1.215,1.04 -2.114,2.89 -2.602,5.43 -0.265,1.05 -0.465,2.29 -0.492,3.85 -0.18,1.44 -0.234,3.1 -0.289,4.74 -0.117,1.63 -0.117,3.25 -0.117,4.69 0,1.45 0,2.63 0.086,3.56 v 50.69 c 0,0 -8.446,-0.78 -15.5,-7.46 0,0 -2.895,0.84 -4.66,1.1 -1.762,0.26 -3.731,0.46 -5.696,0.58 -2.054,0.09 -4.109,0.09 -6.277,0 -2.168,-0.12 -4.223,-0.43 -6.246,-0.84 -5.176,-1.09 -9.805,-3.01 -13.793,-5.64 -4.082,-2.75 -7.578,-5.86 -10.559,-9.55 -2.945,-3.7 -5.406,-7.77 -7.316,-12.22 -1.942,-4.46 -3.297,-9.09 -4.25,-13.68 -1.016,-4.72 -1.504,-9.35 -1.504,-14 0,-4.63 0.461,-8.94 1.301,-12.96 0.781,-4.11 2.023,-7.64 3.757,-10.91 1.653,-3.26 3.614,-6.01 5.958,-8.12 2.375,-2.14 5.035,-3.58 8.128,-4.42 3.036,-0.93 6.45,-0.93 10.036,-0.15 3.761,0.78 6.941,2.03 9.511,3.58 2.692,1.59 4.918,3.59 6.914,5.91 7.289,8.97 9.254,19.38 9.254,19.38 0,0 0.324,-3.97 0.465,-5.53 0.117,-1.56 0.402,-3.19 0.75,-4.77 0.84,-3.99 2.867,-6.79 6.106,-8.3 3.175,-1.5 6.996,-1.77 11.593,-0.78 2.84,0.58 5.293,1.42 7.578,2.48 2.231,1.05 4.254,2.29 6.161,3.65 1.738,1.27 3.468,2.63 4.804,4.08 1.446,1.44 2.692,2.8 3.84,4.11 z m 46.862,11.38 -4.78,4.46 c -1.47,-1.53 -2.8,-2.78 -4.14,-3.62 -1.15,-0.89 -2.57,-1.56 -4.19,-1.87 -1.67,-0.41 -3.18,-0.03 -4.37,0.98 -1.09,0.98 -1.99,2.66 -2.42,4.89 -0.493,2.17 -0.782,4.57 -0.841,7.09 -0.148,2.54 -0.207,5.28 -0.148,8.24 v 85.52 l -36.61,-7.79 v -8.64 l 3.524,0.83 c 1.504,0.32 2.691,0.47 3.789,0.59 1.047,0.11 2,-0.12 2.75,-0.38 l 1.793,-1.71 c 0.551,-0.72 0.957,-1.85 1.183,-3.26 l 0.122,-1.05 0.14,-1.59 v -67.32 c 0,-8.25 0.461,-14.58 1.305,-18.98 1.039,-5.09 3.5,-8.61 7.199,-10.73 3.731,-2.14 8.473,-2.6 14.457,-1.36 2.747,0.63 5.327,1.45 7.517,2.55 2.23,1.18 4.2,2.37 5.93,3.85 1.74,1.44 3.24,2.89 4.51,4.6 1.25,1.56 2.29,3.2 3.28,4.7 z m 65.96,124.08 C 1116,1181.5 1007.63,1024.76 843.969,994.91 689.473,966.738 541.227,1069.18 513.027,1223.7 c -26.664,146.07 70.161,286.06 216.243,312.78 138.156,25.19 270.437,-66.34 295.6,-204.27 l 61.28,12.96" /><path
         id="path56"
         style="fill:#ffffff;fill-opacity:1;fill-rule:nonzero;stroke:none"
         d="m 1015.41,1225.55 4.78,-4.46 c -0.99,-1.5 -2.03,-3.14 -3.28,-4.7 -1.27,-1.71 -2.77,-3.16 -4.51,-4.6 -1.73,-1.48 -3.7,-2.67 -5.93,-3.85 -2.19,-1.1 -4.77,-1.92 -7.517,-2.55 -5.984,-1.24 -10.726,-0.78 -14.457,1.36 -3.699,2.12 -6.16,5.64 -7.199,10.73 -0.844,4.4 -1.305,10.73 -1.305,18.98 v 67.32 l -0.14,1.59 -0.122,1.05 c -0.226,1.41 -0.632,2.54 -1.183,3.26 l -1.793,1.71 c -0.75,0.26 -1.703,0.49 -2.75,0.38 -1.098,-0.12 -2.285,-0.27 -3.789,-0.59 l -3.524,-0.83 v 8.64 l 36.61,7.79 v -85.52 c -0.059,-2.96 0,-5.7 0.148,-8.24 0.059,-2.52 0.348,-4.92 0.841,-7.09 0.43,-2.23 1.33,-3.91 2.42,-4.89 1.19,-1.01 2.7,-1.39 4.37,-0.98 1.62,0.31 3.04,0.98 4.19,1.87 1.34,0.84 2.67,2.09 4.14,3.62" /><path
         id="path58"
         style="fill:#ffffff;fill-opacity:1;fill-rule:nonzero;stroke:none"
         d="m 929.605,1239.03 v 26.9 c -1.304,1.24 -2.921,1.99 -4.8,2.34 -2.028,0.25 -3.965,0.25 -5.957,-0.14 -2.985,-0.64 -5.555,-2.04 -7.727,-4.11 -2.105,-2.09 -3.93,-4.66 -5.351,-7.67 -1.473,-3.12 -2.602,-6.47 -3.434,-10.15 -0.813,-3.58 -1.363,-7.31 -1.684,-11.1 -0.257,-3.79 -0.257,-7.52 -0.054,-11.08 0.203,-3.59 0.691,-6.79 1.273,-9.72 0.574,-3.01 1.297,-5.43 2.195,-7.41 0.813,-1.87 1.704,-3.37 2.692,-4.45 1.012,-1.03 2.082,-1.76 3.148,-2.08 1.188,-0.29 2.403,-0.32 3.532,-0.15 2.226,0.52 4.421,2.06 6.363,4.46 1.996,2.49 3.758,5.56 5.176,9.22 1.39,3.68 2.601,7.67 3.414,12.04 0.781,4.39 1.214,8.76 1.214,13.1 z m 38.985,-23.83 4.738,-5.49 c -1.148,-1.31 -2.394,-2.67 -3.84,-4.11 -1.336,-1.45 -3.066,-2.81 -4.804,-4.08 -1.907,-1.36 -3.93,-2.6 -6.161,-3.65 -2.285,-1.06 -4.738,-1.9 -7.578,-2.48 -4.597,-0.99 -8.418,-0.72 -11.593,0.78 -3.239,1.51 -5.266,4.31 -6.106,8.3 -0.348,1.58 -0.633,3.21 -0.75,4.77 -0.141,1.56 -0.465,5.53 -0.465,5.53 0,0 -1.965,-10.41 -9.254,-19.38 -1.996,-2.32 -4.222,-4.32 -6.914,-5.91 -2.57,-1.55 -5.75,-2.8 -9.511,-3.58 -3.586,-0.78 -7,-0.78 -10.036,0.15 -3.093,0.84 -5.753,2.28 -8.128,4.42 -2.344,2.11 -4.305,4.86 -5.958,8.12 -1.734,3.27 -2.976,6.8 -3.757,10.91 -0.84,4.02 -1.301,8.33 -1.301,12.96 0,4.65 0.488,9.28 1.504,14 0.953,4.59 2.308,9.22 4.25,13.68 1.91,4.45 4.371,8.52 7.316,12.22 2.981,3.69 6.477,6.8 10.559,9.55 3.988,2.63 8.617,4.55 13.793,5.64 2.023,0.41 4.078,0.72 6.246,0.84 2.168,0.09 4.223,0.09 6.277,0 1.965,-0.12 3.934,-0.32 5.696,-0.58 1.765,-0.26 4.66,-1.1 4.66,-1.1 7.054,6.68 15.5,7.46 15.5,7.46 v -50.69 c -0.086,-0.93 -0.086,-2.11 -0.086,-3.56 0,-1.44 0,-3.06 0.117,-4.69 0.055,-1.64 0.109,-3.3 0.289,-4.74 0.027,-1.56 0.227,-2.8 0.492,-3.85 0.488,-2.54 1.387,-4.39 2.602,-5.43 1.328,-1.1 2.715,-1.42 4.367,-1.1 1.441,0.32 2.746,0.95 3.93,1.82 1.273,0.92 2.519,2.03 3.906,3.27" /><path
         id="path60"
         style="fill:#100f0d;fill-opacity:1;fill-rule:nonzero;stroke:none"
         d="m 929.605,1265.93 v -26.9 c 0,-4.34 -0.433,-8.71 -1.214,-13.1 -0.813,-4.37 -2.024,-8.36 -3.414,-12.04 -1.418,-3.66 -3.18,-6.73 -5.176,-9.22 -1.942,-2.4 -4.137,-3.94 -6.363,-4.46 -1.129,-0.17 -2.344,-0.14 -3.532,0.15 -1.066,0.32 -2.136,1.05 -3.148,2.08 -0.988,1.08 -1.879,2.58 -2.692,4.45 -0.898,1.98 -1.621,4.4 -2.195,7.41 -0.582,2.93 -1.07,6.13 -1.273,9.72 -0.203,3.56 -0.203,7.29 0.054,11.08 0.321,3.79 0.871,7.52 1.684,11.1 0.832,3.68 1.961,7.03 3.434,10.15 1.421,3.01 3.246,5.58 5.351,7.67 2.172,2.07 4.742,3.47 7.727,4.11 1.992,0.39 3.929,0.39 5.957,0.14 1.879,-0.35 3.496,-1.1 4.8,-2.34" /><path
         id="path62"
         style="fill:#ffffff;fill-opacity:1;fill-rule:nonzero;stroke:none"
         d="m 836.539,1237.3 c 0,1 0.199,9.54 6.879,19.16 10.473,15.54 29.355,14.44 33.754,1.8 1.793,-5.17 0,-17.53 -12.93,-20.62 0,0 -2.078,15.65 -10.703,13.62 -11.016,-2.54 -15.496,-24.87 -15.785,-50.38 l -0.266,-27.99 -23.164,-4.98 v 65.02 c -0.027,0.98 -0.027,2.11 -0.086,3.59 -0.027,1.44 -0.23,2.68 -0.465,3.81 -0.429,1.97 -1.296,3.21 -2.742,3.73 -1.445,0.58 -3.59,0.58 -6.511,-0.06 l -3.125,-0.72 -0.051,8.65 34.64,7.32 0.555,-21.95" /><path
         id="path64"
         style="fill:#ffffff;fill-opacity:1;fill-rule:nonzero;stroke:none"
         d="m 802.523,1180.41 4.747,-4.46 c -0.926,-1.51 -1.997,-3.06 -3.301,-4.71 -1.328,-1.56 -2.86,-3.13 -4.567,-4.6 -1.765,-1.41 -3.675,-2.66 -5.871,-3.76 -2.199,-1.13 -4.715,-1.96 -7.519,-2.58 -5.93,-1.24 -10.758,-0.78 -14.489,1.34 -3.671,2.14 -6.101,5.7 -7.144,10.7 -0.461,2.16 -0.75,4.92 -1.066,8.07 -0.239,3.2 -0.29,6.8 -0.29,10.9 v 32.28 l -0.148,2.07 -0.086,1.65 -0.172,0.99 c -0.262,1.45 -0.699,2.54 -1.187,3.26 l -1.789,1.71 c -0.754,0.38 -1.711,0.47 -2.75,0.38 -1.039,-0.06 -2.258,-0.26 -3.731,-0.58 l -3.097,-0.73 v 8.66 l 36.441,7.72 -0.149,-52.55 c 0,-2.95 0.032,-5.76 0.208,-8.24 0.085,-2.55 0.347,-4.92 0.781,-7.06 0.488,-2.26 1.301,-3.88 2.484,-4.92 1.246,-0.98 2.66,-1.36 4.313,-0.98 1.644,0.34 3.089,0.93 4.304,1.76 1.219,0.98 2.547,2.18 4.078,3.68" /><path
         id="path66"
         style="fill:#ffffff;fill-opacity:1;fill-rule:nonzero;stroke:none"
         d="m 788.238,1275.98 c 0.407,-2.22 0.407,-4.07 -0.113,-5.89 -0.523,-1.71 -1.305,-3.27 -2.461,-4.57 -1.098,-1.33 -2.543,-2.43 -4.137,-3.32 -1.73,-0.87 -3.523,-1.51 -5.293,-1.92 -1.703,-0.34 -3.351,-0.51 -4.886,-0.46 -1.504,0.12 -2.918,0.46 -4.164,0.99 -1.211,0.64 -2.258,1.39 -3.09,2.54 -0.93,1.04 -1.567,2.37 -1.91,3.99 -0.524,2.29 -0.524,4.31 -0.059,6.02 0.465,1.76 1.242,3.35 2.344,4.6 1.097,1.3 2.394,2.42 4.078,3.2 1.621,0.9 3.383,1.57 5.32,1.95 1.645,0.34 3.238,0.52 4.801,0.52 1.531,-0.12 2.977,-0.38 4.254,-0.99 1.266,-0.58 2.426,-1.36 3.406,-2.45 0.84,-1.14 1.504,-2.55 1.91,-4.21" /><path
         id="path68"
         style="fill:#ffffff;fill-opacity:1;fill-rule:nonzero;stroke:none"
         d="m 752.438,1269.16 3.73,-6.21 c -1.273,-1.68 -2.777,-3.13 -4.512,-4.57 -1.761,-1.42 -3.761,-2.67 -5.929,-3.79 -2.172,-1.13 -4.747,-2.03 -7.547,-2.55 -5.957,-1.3 -10.735,-0.84 -14.465,1.25 -3.699,2.2 -6.102,5.75 -7.172,10.73 -0.863,4.45 -1.328,10.78 -1.328,18.97 l -0.086,12.81 c 0,0.99 0,2.29 0,3.85 0,1.53 -0.09,3.15 -0.09,4.79 -0.082,1.65 -0.113,3.27 -0.289,4.92 0,1.57 -0.258,3.07 -0.402,4.37 -0.321,0.99 -0.61,1.96 -0.953,2.92 -0.375,1.08 -0.93,1.98 -1.653,2.73 -0.574,0.75 -1.387,1.32 -2.312,1.69 -0.953,0.39 -2.051,0.39 -3.496,0.15 -1.711,-0.4 -3.274,-1.42 -4.805,-2.86 -1.102,-1.05 -3.469,-3.76 -5.813,-8.45 l -6.101,2.78 c 0,0 5.726,15.3 18.015,21.58 2.75,1.3 5.79,2.31 9.2,3.03 3.179,0.7 6.015,0.79 8.504,0.29 2.484,-0.49 4.507,-1.42 6.242,-2.75 1.652,-1.32 3.039,-3 4.082,-5 1.097,-2.03 1.82,-4.25 2.308,-6.6 0.321,-1.27 0.524,-2.71 0.614,-4.25 0.14,-1.53 0.226,-3.01 0.258,-4.63 0.058,-1.56 0.058,-3.12 0.058,-4.74 0,-1.58 0,-3.09 0,-4.48 l 0.09,-17.32 c -0.09,-2.93 0,-5.7 0.141,-8.24 0.027,-2.49 0.433,-5.15 0.898,-7.32 0.465,-2.23 1.762,-3.99 2.891,-4.97 1.183,-0.99 2.629,-1.36 4.394,-0.99 1.649,0.32 2.985,0.99 4.195,1.88 l 1.333,0.98" /><path
         id="path70"
         style="fill:#ffffff;fill-opacity:1;fill-rule:nonzero;stroke:none"
         d="m 722.301,1185.35 c 0.344,3.73 0.344,7.35 0.144,10.88 -0.234,3.56 -0.668,6.82 -1.215,9.75 -0.492,2.08 -1.011,4.13 -1.679,6.06 -0.75,1.92 -1.586,3.62 -2.574,5.07 -0.868,1.41 -2.02,2.48 -3.266,3.26 -1.305,0.67 -2.75,0.78 -4.281,0.53 -4.774,-0.67 -16.891,-12.5 -16.891,-36.56 v -29.01 c 0.465,-0.32 1.738,-0.69 2.66,-1.1 0.84,-0.31 1.793,-0.67 2.809,-0.83 1.07,-0.21 2.137,-0.29 3.265,-0.29 1.305,-0.12 2.457,0 3.645,0.26 2.777,0.61 5.148,1.9 7.289,3.86 1.996,2.09 3.731,4.46 5.148,7.42 1.36,2.98 2.489,6.21 3.293,9.79 0.84,3.54 1.395,7.21 1.653,10.91 z m 23.019,14.35 c 0.063,-4.51 -0.375,-9.09 -1.215,-13.8 -0.808,-4.66 -2.195,-9.28 -4.015,-13.82 -1.77,-4.57 -4.078,-8.74 -7.004,-12.56 -2.918,-3.79 -6.391,-7.05 -10.41,-9.8 -4.02,-2.81 -8.735,-4.8 -13.969,-5.9 -3.098,-0.64 -6.129,-0.98 -8.965,-0.9 -2.804,0.06 -5.008,0.53 -7.203,1.25 v -17.56 l 0.117,-2.08 0.086,-1.71 0.231,-0.97 c 0.207,-1.46 0.582,-2.55 1.07,-3.33 l 1.879,-1.66 c 0.754,-0.31 1.652,-0.45 2.75,-0.37 0.98,0.06 3.906,0.58 3.906,0.58 v -6.74 l -32.828,-6.94 v 100.24 l -0.059,2.08 -0.14,1.65 -0.117,0.98 c -0.348,1.45 -0.723,2.55 -1.188,3.33 l -1.879,1.71 c -0.722,0.37 -1.621,0.46 -2.719,0.4 -1.043,-0.03 -2.285,-0.26 -3.761,-0.55 l -3.094,-0.84 v 8.7 l 33.52,7.12 0.925,-21.37 c 1.16,3.59 2.317,7 3.559,10.15 1.301,3.07 2.918,5.87 4.715,8.3 1.82,2.48 4.105,4.51 6.711,6.23 2.66,1.69 5.84,2.94 9.656,3.77 3.324,0.68 6.566,0.73 9.574,0.12 3.039,-0.64 5.754,-1.93 8.184,-3.89 2.515,-1.98 4.543,-4.55 6.422,-7.82 1.761,-3.21 3.089,-7.12 4.105,-11.77 0.723,-3.68 1.156,-7.78 1.156,-12.23" /><path
         id="path72"
         style="fill:#100f0d;fill-opacity:1;fill-rule:nonzero;stroke:none"
         d="m 722.445,1196.23 c 0.2,-3.53 0.2,-7.15 -0.144,-10.88 -0.258,-3.7 -0.813,-7.37 -1.653,-10.91 -0.804,-3.58 -1.933,-6.81 -3.293,-9.79 -1.417,-2.96 -3.152,-5.33 -5.148,-7.42 -2.141,-1.96 -4.512,-3.25 -7.289,-3.86 -1.188,-0.26 -2.34,-0.38 -3.645,-0.26 -1.128,0 -2.195,0.08 -3.265,0.29 -1.016,0.16 -1.969,0.52 -2.809,0.83 -0.922,0.41 -2.195,0.78 -2.66,1.1 v 29.01 c 0,24.06 12.117,35.89 16.891,36.56 1.531,0.25 2.976,0.14 4.281,-0.53 1.246,-0.78 2.398,-1.85 3.266,-3.26 0.988,-1.45 1.824,-3.15 2.574,-5.07 0.668,-1.93 1.187,-3.98 1.679,-6.06 0.547,-2.93 0.981,-6.19 1.215,-9.75" /><path
         id="path74"
         style="fill:#ffffff;fill-opacity:1;fill-rule:nonzero;stroke:none"
         d="m 689.215,1312.69 6.101,-2.78 c -3.035,-5.98 -6.015,-15.21 -6.015,-28.25 v -38.38 l -23.024,-4.92 v 66.55 l -0.054,2.02 -0.145,1.66 -0.144,1.03 c -0.289,1.43 -0.637,2.55 -1.129,3.33 l -1.938,1.68 c -0.664,0.25 -1.562,0.43 -2.601,0.37 -1.043,-0.12 -2.371,-0.28 -3.789,-0.61 l -3.18,-0.66 v 8.63 l 35.023,7.37 0.895,-17.04" /><path
         id="path76"
         style="fill:#ffffff;fill-opacity:1;fill-rule:nonzero;stroke:none"
         d="m 652.633,1160.05 c 0.953,-4.14 0.953,-8.11 0,-11.84 -0.84,-3.58 -2.578,-6.93 -5.266,-9.94 -2.687,-3 -6.219,-5.56 -10.613,-7.78 -4.395,-2.23 -9.637,-3.94 -15.82,-5.32 -4.368,-0.96 -8.473,-1.42 -12.207,-1.42 -3.786,0 -7.028,0.46 -9.887,1.42 -2.781,0.92 -5.149,2.31 -6.945,4.14 -1.793,1.75 -3.04,4.04 -3.614,6.74 -0.406,2.42 -0.406,4.59 0.172,6.41 0.641,1.89 1.649,3.47 2.953,4.9 1.27,1.29 2.832,2.41 4.77,3.34 1.762,0.93 3.82,1.57 5.789,2.03 0.633,-2.81 1.441,-5.37 2.453,-7.81 1.156,-2.4 2.516,-4.48 4.168,-6.13 1.559,-1.71 3.41,-2.89 5.578,-3.58 2.199,-0.78 4.715,-0.87 7.461,-0.21 2.086,0.43 4.02,1.15 5.73,2.02 1.672,0.9 3.067,1.97 4.106,3.27 1.156,1.24 1.937,2.69 2.371,4.25 0.461,1.65 0.461,3.36 0.055,5.23 -0.348,1.77 -1.039,3.22 -1.961,4.46 -0.93,1.19 -2.258,2.29 -3.965,3.21 -1.676,0.84 -3.703,1.62 -6.129,2.29 -2.434,0.66 -5.266,1.44 -8.68,2.22 -3.242,0.84 -6.25,1.77 -9.019,2.86 -2.723,1.08 -5.18,2.44 -7.293,4.08 -2.11,1.63 -3.902,3.53 -5.352,5.73 -1.386,2.26 -2.484,4.86 -3.09,7.87 -0.781,3.85 -0.699,7.4 0.258,10.73 0.985,3.35 2.75,6.48 5.324,9.22 2.543,2.8 5.868,5.18 9.86,7.21 4.109,2.02 8.793,3.73 14.144,4.85 5.235,1.11 9.598,1.63 13.418,1.56 3.7,-0.02 6.856,-0.51 9.368,-1.44 2.515,-0.78 4.371,-2.02 5.757,-3.56 1.301,-1.56 2.227,-3.29 2.575,-5.2 0.898,-4.08 -0.059,-7.4 -2.778,-9.95 -2.746,-2.55 -6.91,-4.37 -12.379,-5.56 -0.406,2.09 -1.07,4.11 -1.91,6.13 -0.781,2.03 -1.847,3.73 -3.148,5.3 -1.305,1.44 -2.836,2.58 -4.602,3.36 -1.703,0.72 -3.699,0.88 -5.867,0.43 -1.996,-0.43 -3.73,-1.1 -5.266,-2.05 -1.359,-0.93 -2.547,-1.95 -3.527,-3.19 -0.898,-1.21 -1.477,-2.55 -1.793,-4.02 -0.289,-1.39 -0.289,-2.89 -0.09,-4.4 0.406,-1.7 1.102,-3.12 1.942,-4.24 0.98,-1.14 2.254,-2.08 3.961,-2.9 1.707,-0.78 3.675,-1.5 6.074,-2.07 2.461,-0.65 5.32,-1.34 8.617,-2.09 3.59,-0.81 6.766,-1.76 9.516,-2.95 2.8,-1.24 5.175,-2.57 7.171,-4.25 1.997,-1.71 3.555,-3.61 4.832,-5.78 1.243,-2.2 2.223,-4.75 2.778,-7.58" /><path
         id="path78"
         style="fill:#ffffff;fill-opacity:1;fill-rule:nonzero;stroke:none"
         d="m 626.367,1289.06 c 0.781,2.95 0.899,6.05 0.235,9.29 -0.696,3.2 -1.879,5.52 -3.532,7.02 -1.73,1.51 -3.757,1.99 -6.156,1.51 -2.519,-0.55 -4.719,-1.97 -6.539,-4.4 -1.906,-2.43 -3.383,-5.23 -4.629,-8.64 -1.098,-3.42 -1.992,-7.12 -2.516,-11.2 -0.542,-3.99 -0.632,-7.89 -0.542,-11.71 l 1.414,0.26 c 3.847,0.81 7.253,2.05 10.351,3.76 3.125,1.7 5.582,3.79 7.637,6.14 1.996,2.42 3.441,5.11 4.277,7.97 z m 22.102,15.13 c 0.863,-4.14 0.426,-8.45 -1.047,-12.75 -1.504,-4.32 -3.902,-8.33 -7.317,-12.12 -3.5,-3.79 -7.804,-7.06 -13.07,-9.96 -5.262,-2.91 -11.191,-5.08 -17.789,-6.44 -0.84,-0.21 -1.762,-0.41 -2.801,-0.61 -1.047,-0.26 -2.027,-0.38 -3.007,-0.52 0.14,-0.98 0.23,-2.02 0.402,-3.07 0.144,-1.06 0.348,-1.99 0.578,-2.89 1.273,-6.02 3.645,-10.32 7.027,-13.02 3.473,-2.6 8.012,-3.35 13.621,-2.17 2.516,0.56 4.801,1.39 6.887,2.64 2.168,1.21 4.047,2.54 5.641,4.19 1.761,1.56 3.207,3.27 4.394,5.09 1.297,1.76 2.168,3.65 3.035,5.44 0.754,-0.66 1.36,-1.54 1.997,-2.63 0.578,-1.16 1.043,-2.28 1.3,-3.64 0.348,-1.92 0.176,-4 -0.578,-6.25 -0.722,-2.34 -2.199,-4.63 -4.308,-6.92 -2.082,-2.28 -4.95,-4.33 -8.563,-6.27 -3.586,-1.97 -7.98,-3.53 -13.246,-4.59 -4.711,-1.05 -9.281,-1.31 -13.676,-0.9 -4.511,0.43 -8.508,1.68 -12.207,3.58 -3.64,2.02 -6.824,4.83 -9.547,8.45 -2.601,3.67 -4.453,8.12 -5.609,13.47 -0.805,3.91 -1.129,7.98 -0.981,12.43 0.086,4.43 0.75,8.83 1.848,13.23 1.188,4.42 2.84,8.76 4.977,12.95 2.226,4.26 4.976,8.16 8.242,11.72 3.238,3.52 7.176,6.59 11.539,9.25 4.48,2.57 9.605,4.49 15.242,5.67 7.317,1.53 13.391,1.15 18.102,-1.18 4.718,-2.38 7.609,-6.43 8.914,-12.18" /><path
         id="path80"
         style="fill:#100f0d;fill-opacity:1;fill-rule:nonzero;stroke:none"
         d="m 626.602,1298.35 c 0.664,-3.24 0.546,-6.34 -0.235,-9.29 -0.836,-2.86 -2.281,-5.55 -4.277,-7.97 -2.055,-2.35 -4.512,-4.44 -7.637,-6.14 -3.098,-1.71 -6.504,-2.95 -10.351,-3.76 l -1.414,-0.26 c -0.09,3.82 0,7.72 0.542,11.71 0.524,4.08 1.418,7.78 2.516,11.2 1.246,3.41 2.723,6.21 4.629,8.64 1.82,2.43 4.02,3.85 6.539,4.4 2.399,0.48 4.426,0 6.156,-1.51 1.653,-1.5 2.836,-3.82 3.532,-7.02" /></g></g></svg>