<?xml version="1.0" encoding="UTF-8" standalone="no"?>
<svg
   xmlns:dc="http://purl.org/dc/elements/1.1/"
   xmlns:cc="http://creativecommons.org/ns#"
   xmlns:rdf="http://www.w3.org/1999/02/22-rdf-syntax-ns#"
   xmlns:svg="http://www.w3.org/2000/svg"
   xmlns="http://www.w3.org/2000/svg"
   viewBox="0 0 301.50668 130.08"
   height="130.08"
   width="301.50668"
   xml:space="preserve"
   id="svg2"
   version="1.1"><metadata
     id="metadata8"><rdf:RDF><cc:Work
         rdf:about=""><dc:format>image/svg+xml</dc:format><dc:type
           rdf:resource="http://purl.org/dc/dcmitype/StillImage" /></cc:Work></rdf:RDF></metadata><defs
     id="defs6"><clipPath
       id="clipPath24"
       clipPathUnits="userSpaceOnUse"><path
         id="path22"
         d="m 2255.48,491.809 -1.84,0.004 0.9,2.628 0.94,-2.632 m -100.04,282.234 -69.63,191.758 h 1.66 l 67.97,-191.758" /></clipPath><linearGradient
       id="linearGradient30"
       spreadMethod="pad"
       gradientTransform="matrix(1543.58,-1e-7,1e-7,1439.85,626.631,728.804)"
       gradientUnits="userSpaceOnUse"
       y2="0"
       x2="1"
       y1="0"
       x1="0"><stop
         id="stop26"
         offset="0"
         style="stop-opacity:1;stop-color:#ffffff" /><stop
         id="stop28"
         offset="1"
         style="stop-opacity:1;stop-color:#f6f6f6" /></linearGradient><clipPath
       id="clipPath40"
       clipPathUnits="userSpaceOnUse"><path
         id="path38"
         d="m 426.934,496.18 -21.829,0.05 v 68.813 l 21.829,-68.863" /></clipPath><linearGradient
       id="linearGradient46"
       spreadMethod="pad"
       gradientTransform="matrix(1543.58,-1e-7,1e-7,1439.85,626.631,728.804)"
       gradientUnits="userSpaceOnUse"
       y2="0"
       x2="1"
       y1="0"
       x1="0"><stop
         id="stop42"
         offset="0"
         style="stop-opacity:1;stop-color:#cdccc9" /><stop
         id="stop44"
         offset="1"
         style="stop-opacity:1;stop-color:#c1c0bf" /></linearGradient><clipPath
       id="clipPath56"
       clipPathUnits="userSpaceOnUse"><path
         id="path54"
         d="M 2253.64,491.813 426.934,496.18 405.105,565.043 V 965.801 H 2085.81 l 69.63,-191.758 99.1,-279.602 -0.9,-2.628" /></clipPath><linearGradient
       id="linearGradient62"
       spreadMethod="pad"
       gradientTransform="matrix(1543.58,-1e-7,1e-7,1439.85,626.631,728.804)"
       gradientUnits="userSpaceOnUse"
       y2="0"
       x2="1"
       y1="0"
       x1="0"><stop
         id="stop58"
         offset="0"
         style="stop-opacity:1;stop-color:#ea3837" /><stop
         id="stop60"
         offset="1"
         style="stop-opacity:1;stop-color:#df3635" /></linearGradient></defs><g
     transform="matrix(1.3333333,0,0,-1.3333333,0,130.08)"
     id="g10"><g
       transform="scale(0.1)"
       id="g12"><path
         id="path14"
         style="fill:#cdccca;fill-opacity:1;fill-rule:nonzero;stroke:none"
         d="M -5.54297,-2.48828 V 973.066 H 674.488 V -2.48828 H -5.54297" /><path
         id="path16"
         style="fill:#ea3837;fill-opacity:1;fill-rule:nonzero;stroke:none"
         d="M 434.363,472.734 309.219,-2.48828 H 2083.17 L 2255.72,497.859 2083.17,973.066 H 275.781 L 434.363,472.734" /><g
         id="g18"><g
           clip-path="url(#clipPath24)"
           id="g20"><path
             id="path32"
             style="fill:url(#linearGradient30);fill-opacity:1;fill-rule:nonzero;stroke:none"
             d="m 2255.48,491.809 -1.84,0.004 0.9,2.628 0.94,-2.632 m -100.04,282.234 -69.63,191.758 h 1.66 l 67.97,-191.758" /></g></g><g
         id="g34"><g
           clip-path="url(#clipPath40)"
           id="g36"><path
             id="path48"
             style="fill:url(#linearGradient46);fill-opacity:1;fill-rule:nonzero;stroke:none"
             d="m 426.934,496.18 -21.829,0.05 v 68.813 l 21.829,-68.863" /></g></g><g
         id="g50"><g
           clip-path="url(#clipPath56)"
           id="g52"><path
             id="path64"
             style="fill:url(#linearGradient62);fill-opacity:1;fill-rule:nonzero;stroke:none"
             d="M 2253.64,491.813 426.934,496.18 405.105,565.043 V 965.801 H 2085.81 l 69.63,-191.758 99.1,-279.602 -0.9,-2.628" /></g></g><path
         id="path66"
         style="fill:#100f0d;fill-opacity:1;fill-rule:nonzero;stroke:none"
         d="m 314.32,521.223 c 1.758,5.132 2.203,10.293 1.207,15.183 -1.547,6.875 -4.992,11.66 -10.601,14.485 -5.645,2.793 -12.836,3.242 -21.543,1.414 -6.746,-1.414 -12.809,-3.684 -18.141,-6.746 -5.191,-3.137 -9.844,-6.848 -13.726,-10.981 -3.895,-4.265 -7.2,-8.914 -9.844,-13.973 -2.516,-4.96 -4.516,-10.156 -5.856,-15.378 -1.339,-5.278 -2.132,-10.5 -2.238,-15.774 -0.137,-5.223 0.246,-10.117 1.172,-14.824 1.379,-6.367 3.578,-11.641 6.676,-15.938 3.238,-4.375 6.988,-7.714 11.355,-10.086 4.41,-2.343 9.157,-3.792 14.563,-4.269 5.16,-0.481 10.636,-0.164 16.211,1.035 6.332,1.309 11.496,3.137 15.832,5.508 4.265,2.266 7.676,4.746 10.187,7.473 2.442,2.671 4.231,5.359 5.059,8.179 0.93,2.754 1.168,5.199 0.687,7.473 -0.277,1.621 -0.828,2.961 -1.515,4.336 -0.758,1.308 -1.516,2.344 -2.375,3.137 -1.032,-2.141 -2.098,-4.375 -3.649,-6.504 -1.375,-2.207 -3.093,-4.203 -5.191,-6.067 -1.899,-1.953 -4.098,-3.547 -6.715,-4.988 -2.441,-1.516 -5.195,-2.441 -8.223,-3.098 -6.644,-1.445 -12.047,-0.547 -16.175,2.586 -4.032,3.164 -6.821,8.324 -8.368,15.41 -0.238,1.106 -0.515,2.207 -0.687,3.45 -0.238,1.269 -0.348,2.547 -0.484,3.718 1.171,0.137 2.378,0.305 3.582,0.579 1.273,0.285 2.339,0.488 3.335,0.722 7.817,1.66 14.907,4.199 21.133,7.676 6.266,3.445 11.426,7.375 15.594,11.848 4.027,4.5 6.918,9.285 8.738,14.414 z m 6.164,-170.395 c 1.137,4.438 1.137,9.082 0,14.043 -0.687,3.371 -1.793,6.438 -3.304,9.047 -1.516,2.586 -3.375,4.852 -5.75,6.922 -2.371,1.926 -5.16,3.574 -8.5,5.019 -3.266,1.414 -7.09,2.52 -11.36,3.543 -3.953,0.832 -7.293,1.661 -10.218,2.414 -2.891,0.696 -5.266,1.551 -7.266,2.481 -1.992,0.996 -3.543,2.129 -4.711,3.476 -1,1.309 -1.859,2.989 -2.27,5.059 -0.281,1.758 -0.281,3.574 0.036,5.266 0.375,1.687 1.129,3.34 2.168,4.746 1.129,1.414 2.543,2.683 4.23,3.758 1.789,1.164 3.887,1.953 6.262,2.468 2.512,0.52 4.887,0.356 6.918,-0.515 2.097,-0.926 3.961,-2.239 5.543,-4.051 1.547,-1.762 2.789,-3.859 3.715,-6.234 1.035,-2.411 1.793,-4.825 2.277,-7.293 6.535,1.406 11.457,3.574 14.691,6.64 3.27,2.988 4.368,6.887 3.371,11.809 -0.48,2.195 -1.546,4.297 -3.128,6.187 -1.586,1.789 -3.856,3.274 -6.848,4.231 -2.961,1.101 -6.676,1.66 -11.086,1.726 -4.574,0.032 -9.734,-0.586 -15.969,-1.89 -6.363,-1.313 -11.941,-3.34 -16.863,-5.754 -4.75,-2.442 -8.707,-5.227 -11.738,-8.606 -3.063,-3.269 -5.196,-6.953 -6.368,-10.906 -1.062,-4.023 -1.203,-8.223 -0.273,-12.844 0.758,-3.543 1.996,-6.668 3.715,-9.351 1.691,-2.59 3.824,-4.824 6.336,-6.821 2.547,-1.921 5.437,-3.543 8.636,-4.851 3.305,-1.27 6.918,-2.41 10.809,-3.367 4.024,-0.969 7.434,-1.828 10.254,-2.66 2.891,-0.79 5.305,-1.747 7.367,-2.75 2.028,-1.067 3.582,-2.375 4.68,-3.821 1.07,-1.472 1.93,-3.203 2.375,-5.304 0.414,-2.235 0.414,-4.266 -0.141,-6.219 -0.476,-1.895 -1.441,-3.543 -2.785,-5.031 -1.203,-1.512 -2.891,-2.821 -4.891,-3.883 -1.992,-1.074 -4.335,-1.938 -6.843,-2.485 -3.239,-0.718 -6.266,-0.613 -8.813,0.278 -2.613,0.828 -4.855,2.273 -6.711,4.336 -1.894,1.89 -3.578,4.375 -4.922,7.261 -1.207,2.856 -2.203,5.957 -2.89,9.289 -2.375,-0.578 -4.785,-1.336 -6.918,-2.402 -2.27,-1.144 -4.129,-2.48 -5.68,-4.031 -1.582,-1.653 -2.785,-3.547 -3.476,-5.813 -0.754,-2.168 -0.754,-4.757 -0.239,-7.605 0.688,-3.203 2.133,-5.918 4.27,-8.059 2.199,-2.129 4.988,-3.75 8.293,-4.922 3.437,-1.132 7.297,-1.679 11.801,-1.679 4.406,0 9.293,0.547 14.496,1.679 7.363,1.653 13.589,3.719 18.789,6.368 5.265,2.617 9.5,5.711 12.699,9.296 3.168,3.504 5.234,7.5 6.23,11.805 z m 108.829,44.809 c 1.062,5.613 1.511,11.082 1.48,16.414 0,5.344 -0.555,10.222 -1.379,14.597 -1.172,5.54 -2.789,10.188 -4.887,13.938 -2.238,3.957 -4.648,7.019 -7.64,9.324 -2.895,2.348 -6.094,3.891 -9.707,4.653 -3.649,0.718 -7.434,0.679 -11.461,-0.11 -4.508,-1.023 -8.297,-2.512 -11.461,-4.543 -3.129,-1.988 -5.781,-4.441 -7.949,-7.359 -2.204,-2.895 -4.063,-6.235 -5.645,-9.914 -1.48,-3.719 -2.891,-7.852 -4.234,-12.051 l -1.071,25.398 -39.953,-8.425 v -10.364 l 3.75,0.969 c 1.758,0.344 3.239,0.613 4.438,0.613 1.308,0.11 2.379,0 3.269,-0.41 0.895,-0.379 1.617,-1.062 2.168,-2.027 0.586,-0.996 1.035,-2.309 1.414,-3.93 l 0.137,-1.199 0.176,-2 0.101,-2.441 c 0,-0.93 0.102,-1.719 0,-2.551 V 297.41 l 39.063,8.332 v 8.047 c 0,0 -3.477,-0.613 -4.649,-0.754 -1.308,-0.105 -2.375,0.141 -3.3,0.52 -0.828,0.383 -1.586,0.996 -2.207,1.925 -0.582,0.899 -1.067,2.208 -1.27,3.922 l -0.242,1.172 -0.141,2.063 -0.101,2.48 v 20.86 c 2.617,-0.832 5.164,-1.446 8.57,-1.446 3.34,-0.136 6.918,0.274 10.637,1.067 6.226,1.304 11.804,3.679 16.59,7.019 4.847,3.235 8.945,7.156 12.386,11.668 3.547,4.504 6.231,9.492 8.368,14.903 2.199,5.363 3.816,10.91 4.75,16.449 z m 14.417,91.687 -4.472,7.434 -1.586,-1.203 c -1.445,-1.067 -3.063,-1.825 -4.957,-2.239 -2.168,-0.449 -3.82,0 -5.266,1.172 -1.34,1.164 -2.886,3.266 -3.441,5.989 -0.516,2.546 -1.028,5.671 -1.028,8.632 -0.246,3.036 -0.281,6.336 -0.246,9.844 l -0.035,20.586 c 0,1.691 0,3.508 0,5.371 0,1.895 0,3.75 -0.101,5.606 -0.035,1.933 -0.172,3.679 -0.309,5.507 -0.105,1.856 -0.379,3.582 -0.758,5.059 -0.551,2.82 -1.441,5.438 -2.683,7.922 -1.274,2.332 -2.926,4.297 -4.887,5.879 -2.102,1.582 -4.508,2.754 -7.438,3.308 -2.992,0.547 -6.332,0.45 -10.152,-0.421 -3.992,-0.821 -7.605,-1.993 -10.875,-3.575 -14.695,-7.468 -21.476,-25.672 -21.476,-25.672 l -1.032,20.274 -41.75,-8.777 v -10.227 l 3.821,0.828 c 1.722,0.305 3.238,0.551 4.511,0.656 1.235,0.071 2.27,-0.105 3.098,-0.422 0.926,-0.476 1.684,-1.062 2.27,-1.992 0.621,-0.965 1.035,-2.273 1.375,-3.953 l 0.175,-1.277 0.137,-1.926 0.105,-2.441 v -79.2 l 27.43,5.852 v 45.672 c 0,15.488 3.512,26.465 7.125,33.625 2.785,5.574 5.61,8.816 6.914,10.055 1.824,1.718 3.688,2.921 5.68,3.441 1.758,0.242 3.062,0.242 4.164,-0.18 1.137,-0.476 2.062,-1.133 2.82,-2.097 0.825,-0.887 1.516,-1.922 1.895,-3.164 0.449,-1.172 0.793,-2.344 1.172,-3.477 0.172,-1.543 0.511,-3.301 0.511,-5.234 0.176,-1.954 0.211,-3.887 0.317,-5.848 0,-1.992 0.101,-3.82 0.101,-5.715 0,-1.855 0,-3.367 0,-4.57 l 0.137,-15.254 c 0,-9.707 0.516,-17.277 1.582,-22.578 1.238,-5.918 4.129,-10.149 8.5,-12.696 4.477,-2.507 10.156,-3.027 17.211,-1.55 3.336,0.652 6.367,1.687 9.016,3.023 2.547,1.352 4.922,2.895 7.019,4.555 2.031,1.679 3.86,3.433 5.406,5.398 z m 38.032,8.574 c 0.617,2.129 0.617,4.368 0.101,6.946 -0.48,2 -1.273,3.687 -2.308,4.988 -1.098,1.309 -2.477,2.273 -4.024,2.93 -1.476,0.722 -3.203,1.062 -5.023,1.172 -1.86,0 -3.824,-0.204 -5.711,-0.625 -2.348,-0.442 -4.445,-1.204 -6.367,-2.266 -1.965,-0.93 -3.547,-2.273 -4.856,-3.816 -1.308,-1.489 -2.269,-3.379 -2.789,-5.442 -0.551,-2.14 -0.551,-4.512 0.106,-7.195 0.379,-1.926 1.172,-3.547 2.234,-4.785 1,-1.313 2.27,-2.27 3.715,-2.992 1.484,-0.692 3.101,-1.075 4.922,-1.168 1.859,-0.11 3.758,0.093 5.82,0.476 2.102,0.559 4.234,1.309 6.262,2.305 1.961,1.074 3.652,2.383 4.988,3.996 1.344,1.551 2.277,3.406 2.93,5.476 z m 22.75,-112.07 -5.68,5.274 c -1.824,-1.797 -3.34,-3.243 -4.852,-4.336 -1.445,-1.036 -3.167,-1.692 -5.058,-2.098 -1.996,-0.52 -3.684,0 -5.168,1.133 -1.375,1.238 -2.371,3.164 -2.926,5.887 -0.512,2.539 -0.824,5.363 -0.961,8.386 -0.203,2.934 -0.203,6.274 -0.203,9.778 l 0.102,62.578 -43.328,-9.192 v -10.293 l 3.644,0.864 c 1.789,0.379 3.234,0.586 4.473,0.679 1.273,0.071 2.375,-0.027 3.304,-0.437 0.829,-0.379 1.582,-1.074 2.137,-2.031 0.551,-0.899 1.027,-2.207 1.41,-3.899 l 0.172,-1.199 0.137,-1.992 0.101,-2.481 V 402.07 c 0,-4.812 0.102,-9.148 0.379,-12.968 0.344,-3.758 0.727,-6.954 1.243,-9.61 1.304,-5.945 4.125,-10.183 8.5,-12.695 4.472,-2.512 10.253,-3.067 17.277,-1.582 3.34,0.683 6.297,1.719 8.914,3.027 2.648,1.309 4.922,2.821 7.016,4.512 2.066,1.75 3.859,3.574 5.406,5.43 1.582,1.961 2.89,3.828 3.961,5.644 z m 67.832,73.445 c 15.351,3.618 17.484,18.352 15.351,24.473 -5.195,15.078 -27.707,16.391 -40.168,-2.098 -7.914,-11.464 -8.152,-21.652 -8.152,-22.851 l -0.687,26.152 -41.2,-8.738 0.035,-10.258 3.715,0.86 c 3.446,0.722 6.063,0.792 7.711,0.109 1.719,-0.692 2.789,-2.141 3.309,-4.473 0.238,-1.347 0.476,-2.82 0.512,-4.582 0.105,-1.758 0.105,-3.094 0.14,-4.195 v -77.473 l 27.563,5.946 0.312,33.324 c 0.344,30.386 5.715,56.961 18.824,59.988 10.227,2.371 12.735,-16.184 12.735,-16.184 z m 129.789,-33.308 -5.61,6.531 c -1.687,-1.441 -3.168,-2.754 -4.714,-3.848 -1.379,-1.035 -2.926,-1.863 -4.645,-2.136 -1.965,-0.481 -3.617,0 -5.168,1.242 -1.476,1.266 -2.543,3.476 -3.164,6.504 -0.277,1.199 -0.516,2.754 -0.551,4.578 -0.172,1.758 -0.238,3.613 -0.383,5.605 -0.101,1.961 -0.101,3.821 -0.101,5.618 0,1.746 0,3.125 0.101,4.199 v 60.332 c 0,0 -10.082,-0.902 -18.445,-8.852 0,0 -3.437,0.969 -5.535,1.313 -2.102,0.269 -4.48,0.515 -6.75,0.679 -2.512,0.083 -4.922,0.083 -7.434,0 -2.617,-0.164 -5.062,-0.503 -7.504,-1.023 -6.125,-1.309 -11.664,-3.547 -16.449,-6.68 -4.785,-3.269 -8.984,-7.019 -12.496,-11.394 -3.543,-4.406 -6.469,-9.262 -8.707,-14.555 -2.336,-5.301 -3.957,-10.738 -5.125,-16.277 -1.172,-5.613 -1.758,-11.082 -1.758,-16.59 0,-5.512 0.551,-10.703 1.582,-15.488 0.934,-4.856 2.411,-9.082 4.477,-12.981 1.891,-3.847 4.269,-7.121 7.059,-9.629 2.785,-2.55 5.984,-4.304 9.667,-5.3 3.579,-1.067 7.672,-1.067 11.942,-0.176 4.473,0.965 8.226,2.437 11.355,4.265 3.172,1.895 5.817,4.27 8.196,7.063 8.636,10.664 11.011,22.984 11.011,22.984 0,0 0.414,-4.676 0.551,-6.504 0.203,-1.851 0.52,-3.75 0.895,-5.679 1,-4.778 3.441,-8.086 7.3,-9.914 3.715,-1.747 8.325,-2.059 13.762,-0.887 3.34,0.652 6.266,1.648 9.02,2.957 2.652,1.238 5.023,2.683 7.297,4.297 2.097,1.511 4.129,3.176 5.711,4.851 1.722,1.758 3.238,3.379 4.613,4.895 z m 55.754,13.594 -5.68,5.3 c -1.754,-1.863 -3.336,-3.339 -4.922,-4.336 -1.41,-1.035 -3.062,-1.824 -5.023,-2.207 -1.992,-0.476 -3.75,-0.066 -5.16,1.204 -1.344,1.171 -2.375,3.066 -2.891,5.82 -0.555,2.551 -0.93,5.398 -0.996,8.398 -0.145,3.028 -0.246,6.258 -0.145,9.844 v 101.699 l -43.636,-9.258 V 543.73 l 4.234,0.997 c 1.754,0.449 3.195,0.586 4.473,0.734 1.339,0.098 2.406,-0.148 3.339,-0.422 0.825,-0.41 1.583,-1.062 2.098,-2.059 0.656,-0.863 1.102,-2.21 1.379,-3.886 l 0.203,-1.211 0.137,-1.965 c 0,-0.82 0,-1.582 0,-2.512 v -77.605 c 0,-9.817 0.555,-17.356 1.582,-22.547 1.207,-6.059 4.133,-10.285 8.504,-12.805 4.476,-2.551 10.152,-3.054 17.211,-1.582 3.301,0.723 6.367,1.719 9.011,3.028 2.618,1.375 4.922,2.824 7.024,4.55 2.062,1.719 3.82,3.465 5.402,5.496 1.449,1.868 2.688,3.829 3.856,5.618 z m 78.539,147.617 C 871.91,390.48 742.914,203.895 548.254,168.379 364.297,134.824 187.91,256.77 154.352,440.586 122.621,614.465 237.848,781.074 411.723,812.805 576.063,842.813 733.52,733.926 763.43,569.758 l 72.996,15.418" /><path
         id="path68"
         style="fill:#ffffff;fill-opacity:1;fill-rule:nonzero;stroke:none"
         d="m 752.207,442.859 5.68,-5.3 c -1.168,-1.789 -2.407,-3.75 -3.856,-5.618 -1.582,-2.031 -3.34,-3.777 -5.402,-5.496 -2.102,-1.726 -4.406,-3.175 -7.024,-4.55 -2.644,-1.309 -5.71,-2.305 -9.011,-3.028 -7.059,-1.472 -12.735,-0.969 -17.211,1.582 -4.371,2.52 -7.297,6.746 -8.504,12.805 -1.027,5.191 -1.582,12.73 -1.582,22.547 v 77.605 c 0,0.93 0,1.692 0,2.512 l -0.137,1.965 -0.203,1.211 c -0.277,1.676 -0.723,3.023 -1.379,3.886 -0.515,0.997 -1.273,1.649 -2.098,2.059 -0.933,0.274 -2,0.52 -3.339,0.422 -1.278,-0.148 -2.719,-0.285 -4.473,-0.734 l -4.234,-0.997 v 10.293 l 43.636,9.258 V 461.582 c -0.101,-3.586 0,-6.816 0.145,-9.844 0.066,-3 0.441,-5.847 0.996,-8.398 0.516,-2.754 1.547,-4.649 2.891,-5.82 1.41,-1.27 3.168,-1.68 5.16,-1.204 1.961,0.383 3.613,1.172 5.023,2.207 1.586,0.997 3.168,2.473 4.922,4.336" /><path
         id="path70"
         style="fill:#ffffff;fill-opacity:1;fill-rule:nonzero;stroke:none"
         d="m 650.094,458.855 v 32.012 c -1.516,1.488 -3.446,2.375 -5.715,2.785 -2.406,0.352 -4.645,0.352 -7.055,-0.136 -3.547,-0.75 -6.676,-2.469 -9.222,-4.922 -2.512,-2.473 -4.645,-5.535 -6.368,-9.121 -1.754,-3.711 -3.062,-7.664 -4.097,-12.039 -0.961,-4.309 -1.582,-8.711 -1.992,-13.215 -0.278,-4.551 -0.278,-8.914 -0.11,-13.223 0.246,-4.266 0.867,-8.086 1.555,-11.523 0.687,-3.582 1.582,-6.504 2.578,-8.782 1,-2.3 2.066,-4.089 3.238,-5.371 1.203,-1.238 2.442,-2.058 3.75,-2.437 1.41,-0.383 2.856,-0.383 4.235,-0.141 2.648,0.586 5.195,2.375 7.539,5.266 2.371,2.961 4.468,6.57 6.121,10.976 1.687,4.309 3.137,9.161 4.097,14.356 0.926,5.168 1.446,10.359 1.446,15.515 z m 46.429,-28.359 5.61,-6.531 c -1.375,-1.516 -2.891,-3.137 -4.613,-4.895 -1.582,-1.675 -3.614,-3.34 -5.711,-4.851 -2.274,-1.614 -4.645,-3.059 -7.297,-4.297 -2.754,-1.309 -5.68,-2.305 -9.02,-2.957 -5.437,-1.172 -10.047,-0.86 -13.762,0.887 -3.859,1.828 -6.3,5.136 -7.3,9.914 -0.375,1.929 -0.692,3.828 -0.895,5.679 -0.137,1.828 -0.551,6.504 -0.551,6.504 0,0 -2.375,-12.32 -11.011,-22.984 -2.379,-2.793 -5.024,-5.168 -8.196,-7.063 -3.129,-1.828 -6.882,-3.3 -11.355,-4.265 -4.27,-0.891 -8.363,-0.891 -11.942,0.176 -3.683,0.996 -6.882,2.75 -9.667,5.3 -2.79,2.508 -5.168,5.782 -7.059,9.629 -2.066,3.899 -3.543,8.125 -4.477,12.981 -1.031,4.785 -1.582,9.976 -1.582,15.488 0,5.508 0.586,10.977 1.758,16.59 1.168,5.539 2.789,10.976 5.125,16.277 2.238,5.293 5.164,10.149 8.707,14.555 3.512,4.375 7.711,8.125 12.496,11.394 4.785,3.133 10.324,5.371 16.449,6.68 2.442,0.52 4.887,0.859 7.504,1.023 2.512,0.083 4.922,0.083 7.434,0 2.27,-0.164 4.648,-0.41 6.75,-0.679 2.098,-0.344 5.535,-1.313 5.535,-1.313 8.363,7.95 18.445,8.852 18.445,8.852 v -60.332 c -0.101,-1.074 -0.101,-2.453 -0.101,-4.199 0,-1.797 0,-3.657 0.101,-5.618 0.145,-1.992 0.211,-3.847 0.383,-5.605 0.035,-1.824 0.274,-3.379 0.551,-4.578 0.621,-3.028 1.688,-5.238 3.164,-6.504 1.551,-1.242 3.203,-1.723 5.168,-1.242 1.719,0.273 3.266,1.101 4.645,2.136 1.546,1.094 3.027,2.407 4.714,3.848" /><path
         id="path72"
         style="fill:#100f0d;fill-opacity:1;fill-rule:nonzero;stroke:none"
         d="m 650.094,490.867 v -32.012 c 0,-5.156 -0.52,-10.347 -1.446,-15.515 -0.96,-5.195 -2.41,-10.047 -4.097,-14.356 -1.653,-4.406 -3.75,-8.015 -6.121,-10.976 -2.344,-2.891 -4.891,-4.68 -7.539,-5.266 -1.379,-0.242 -2.825,-0.242 -4.235,0.141 -1.308,0.379 -2.547,1.199 -3.75,2.437 -1.172,1.282 -2.238,3.071 -3.238,5.371 -0.996,2.278 -1.891,5.2 -2.578,8.782 -0.688,3.437 -1.309,7.257 -1.555,11.523 -0.168,4.309 -0.168,8.672 0.11,13.223 0.41,4.504 1.031,8.906 1.992,13.215 1.035,4.375 2.343,8.328 4.097,12.039 1.723,3.586 3.856,6.648 6.368,9.121 2.546,2.453 5.675,4.172 9.222,4.922 2.41,0.488 4.649,0.488 7.055,0.136 2.269,-0.41 4.199,-1.297 5.715,-2.785" /><path
         id="path74"
         style="fill:#ffffff;fill-opacity:1;fill-rule:nonzero;stroke:none"
         d="m 539.375,456.797 c 0,1.199 0.238,11.387 8.152,22.851 12.461,18.489 34.973,17.176 40.168,2.098 2.133,-6.121 0,-20.855 -15.351,-24.473 0,0 -2.508,18.555 -12.735,16.184 -13.109,-3.027 -18.48,-29.602 -18.824,-59.988 l -0.312,-33.324 -27.563,-5.946 v 77.473 c -0.035,1.101 -0.035,2.437 -0.14,4.195 -0.036,1.762 -0.274,3.235 -0.512,4.582 -0.52,2.332 -1.59,3.781 -3.309,4.473 -1.648,0.683 -4.265,0.613 -7.711,-0.109 l -3.715,-0.86 -0.035,10.258 41.2,8.738 0.687,-26.152" /><path
         id="path76"
         style="fill:#ffffff;fill-opacity:1;fill-rule:nonzero;stroke:none"
         d="m 498.832,389.102 5.68,-5.274 c -1.071,-1.816 -2.379,-3.683 -3.961,-5.644 -1.547,-1.856 -3.34,-3.68 -5.406,-5.43 -2.094,-1.691 -4.368,-3.203 -7.016,-4.512 -2.617,-1.308 -5.574,-2.344 -8.914,-3.027 -7.024,-1.485 -12.805,-0.93 -17.277,1.582 -4.375,2.512 -7.196,6.75 -8.5,12.695 -0.516,2.656 -0.899,5.852 -1.243,9.61 -0.277,3.82 -0.379,8.156 -0.379,12.968 v 38.379 l -0.101,2.481 -0.137,1.992 -0.172,1.199 c -0.383,1.692 -0.859,3 -1.41,3.899 -0.555,0.957 -1.308,1.652 -2.137,2.031 -0.929,0.41 -2.031,0.508 -3.304,0.437 -1.239,-0.093 -2.684,-0.3 -4.473,-0.679 l -3.644,-0.864 v 10.293 l 43.328,9.192 -0.102,-62.578 c 0,-3.504 0,-6.844 0.203,-9.778 0.137,-3.023 0.449,-5.847 0.961,-8.386 0.555,-2.723 1.551,-4.649 2.926,-5.887 1.484,-1.133 3.172,-1.653 5.168,-1.133 1.891,0.406 3.613,1.062 5.058,2.098 1.512,1.093 3.028,2.539 4.852,4.336" /><path
         id="path78"
         style="fill:#ffffff;fill-opacity:1;fill-rule:nonzero;stroke:none"
         d="m 481.863,502.844 c 0.516,-2.578 0.516,-4.817 -0.101,-6.946 -0.653,-2.07 -1.586,-3.925 -2.93,-5.476 -1.336,-1.613 -3.027,-2.922 -4.988,-3.996 -2.028,-0.996 -4.16,-1.746 -6.262,-2.305 -2.062,-0.383 -3.961,-0.586 -5.82,-0.476 -1.821,0.093 -3.438,0.476 -4.922,1.168 -1.445,0.722 -2.715,1.679 -3.715,2.992 -1.062,1.238 -1.855,2.859 -2.234,4.785 -0.657,2.683 -0.657,5.055 -0.106,7.195 0.52,2.063 1.481,3.953 2.789,5.442 1.309,1.543 2.891,2.886 4.856,3.816 1.922,1.062 4.019,1.824 6.367,2.266 1.887,0.421 3.851,0.625 5.711,0.625 1.82,-0.11 3.547,-0.45 5.023,-1.172 1.547,-0.657 2.926,-1.621 4.024,-2.93 1.035,-1.301 1.828,-2.988 2.308,-4.988" /><path
         id="path80"
         style="fill:#ffffff;fill-opacity:1;fill-rule:nonzero;stroke:none"
         d="m 439.258,494.758 4.472,-7.434 c -1.546,-1.965 -3.375,-3.719 -5.406,-5.398 -2.097,-1.66 -4.472,-3.203 -7.019,-4.555 -2.649,-1.336 -5.68,-2.371 -9.016,-3.023 -7.055,-1.477 -12.734,-0.957 -17.211,1.55 -4.371,2.547 -7.262,6.778 -8.5,12.696 -1.066,5.301 -1.582,12.871 -1.582,22.578 l -0.137,15.254 c 0,1.203 0,2.715 0,4.57 0,1.895 -0.101,3.723 -0.101,5.715 -0.106,1.961 -0.141,3.894 -0.317,5.848 0,1.933 -0.339,3.691 -0.511,5.234 -0.379,1.133 -0.723,2.305 -1.172,3.477 -0.379,1.242 -1.07,2.277 -1.895,3.164 -0.758,0.964 -1.683,1.621 -2.82,2.097 -1.102,0.422 -2.406,0.422 -4.164,0.18 -1.992,-0.52 -3.856,-1.723 -5.68,-3.441 -1.304,-1.239 -4.129,-4.481 -6.914,-10.055 l -7.265,3.308 c 0,0 6.781,18.204 21.476,25.672 3.27,1.582 6.883,2.754 10.875,3.575 3.82,0.871 7.16,0.968 10.152,0.421 2.93,-0.554 5.336,-1.726 7.438,-3.308 1.961,-1.582 3.613,-3.547 4.887,-5.879 1.242,-2.484 2.132,-5.102 2.683,-7.922 0.379,-1.477 0.653,-3.203 0.758,-5.059 0.137,-1.828 0.274,-3.574 0.309,-5.507 0.101,-1.856 0.101,-3.711 0.101,-5.606 0,-1.863 0,-3.68 0,-5.371 l 0.035,-20.586 c -0.035,-3.508 0,-6.808 0.246,-9.844 0,-2.961 0.512,-6.086 1.028,-8.632 0.555,-2.723 2.101,-4.825 3.441,-5.989 1.446,-1.172 3.098,-1.621 5.266,-1.172 1.894,0.414 3.512,1.172 4.957,2.239 l 1.586,1.203" /><path
         id="path82"
         style="fill:#ffffff;fill-opacity:1;fill-rule:nonzero;stroke:none"
         d="m 403.395,394.98 c 0.375,4.407 0.375,8.743 0.136,12.981 -0.273,4.227 -0.722,8.125 -1.379,11.559 -0.621,2.511 -1.273,4.921 -1.996,7.265 -0.894,2.27 -1.926,4.336 -3.062,5.988 -1.098,1.692 -2.442,2.997 -3.918,3.926 -1.59,0.821 -3.274,0.93 -5.133,0.614 -5.645,-0.86 -20.031,-14.864 -20.031,-43.504 v -34.551 c 0.519,-0.379 2.066,-0.828 3.133,-1.238 1,-0.454 2.132,-0.793 3.335,-1.04 1.313,-0.269 2.516,-0.371 3.895,-0.371 1.547,-0.132 2.891,0 4.336,0.305 3.301,0.723 6.121,2.274 8.637,4.617 2.375,2.473 4.472,5.364 6.164,8.813 1.613,3.574 2.922,7.429 3.883,11.668 1.039,4.199 1.691,8.601 2,12.968 z m 27.398,17.071 c 0.031,-5.332 -0.418,-10.801 -1.48,-16.414 -0.934,-5.539 -2.551,-11.086 -4.75,-16.449 -2.137,-5.411 -4.821,-10.399 -8.368,-14.903 -3.441,-4.512 -7.539,-8.433 -12.386,-11.668 -4.786,-3.34 -10.364,-5.715 -16.59,-7.019 -3.719,-0.793 -7.297,-1.203 -10.637,-1.067 -3.406,0 -5.953,0.614 -8.57,1.446 v -20.86 l 0.101,-2.48 0.141,-2.063 0.242,-1.172 c 0.203,-1.714 0.688,-3.023 1.27,-3.922 0.621,-0.929 1.379,-1.542 2.207,-1.925 0.925,-0.379 1.992,-0.625 3.3,-0.52 1.172,0.141 4.649,0.754 4.649,0.754 v -8.047 l -39.063,-8.332 v 116.809 c 0.102,0.832 0,1.621 0,2.551 l -0.101,2.441 -0.176,2 -0.137,1.199 c -0.379,1.621 -0.828,2.934 -1.414,3.93 -0.551,0.965 -1.273,1.648 -2.168,2.027 -0.89,0.41 -1.961,0.52 -3.269,0.41 -1.199,0 -2.68,-0.269 -4.438,-0.613 l -3.75,-0.969 v 10.364 l 39.953,8.425 1.071,-25.398 c 1.343,4.199 2.754,8.332 4.234,12.051 1.582,3.679 3.441,7.019 5.645,9.914 2.168,2.918 4.82,5.371 7.949,7.359 3.164,2.031 6.953,3.52 11.461,4.543 4.027,0.789 7.812,0.828 11.461,0.11 3.613,-0.762 6.812,-2.305 9.707,-4.653 2.992,-2.305 5.402,-5.367 7.64,-9.324 2.098,-3.75 3.715,-8.398 4.887,-13.938 0.824,-4.375 1.379,-9.253 1.379,-14.597" /><path
         id="path84"
         style="fill:#100f0d;fill-opacity:1;fill-rule:nonzero;stroke:none"
         d="m 403.531,407.961 c 0.239,-4.238 0.239,-8.574 -0.136,-12.981 -0.309,-4.367 -0.961,-8.769 -2,-12.968 -0.961,-4.239 -2.27,-8.094 -3.883,-11.668 -1.692,-3.449 -3.789,-6.34 -6.164,-8.813 -2.516,-2.343 -5.336,-3.894 -8.637,-4.617 -1.445,-0.305 -2.789,-0.437 -4.336,-0.305 -1.379,0 -2.582,0.102 -3.895,0.371 -1.203,0.247 -2.335,0.586 -3.335,1.04 -1.067,0.41 -2.614,0.859 -3.133,1.238 v 34.551 c 0,28.64 14.386,42.644 20.031,43.504 1.859,0.316 3.543,0.207 5.133,-0.614 1.476,-0.929 2.82,-2.234 3.918,-3.926 1.136,-1.652 2.168,-3.718 3.062,-5.988 0.723,-2.344 1.375,-4.754 1.996,-7.265 0.657,-3.434 1.106,-7.332 1.379,-11.559" /><path
         id="path86"
         style="fill:#ffffff;fill-opacity:1;fill-rule:nonzero;stroke:none"
         d="m 364.02,546.523 7.265,-3.308 c -3.613,-7.16 -7.125,-18.137 -7.125,-33.625 v -45.672 l -27.43,-5.852 v 79.2 l -0.105,2.441 -0.137,1.926 -0.175,1.277 c -0.34,1.68 -0.754,2.988 -1.375,3.953 -0.586,0.93 -1.344,1.516 -2.27,1.992 -0.828,0.317 -1.863,0.493 -3.098,0.422 -1.273,-0.105 -2.789,-0.351 -4.511,-0.656 l -3.821,-0.828 v 10.227 l 41.75,8.777 1.032,-20.274" /><path
         id="path88"
         style="fill:#ffffff;fill-opacity:1;fill-rule:nonzero;stroke:none"
         d="m 320.484,364.871 c 1.137,-4.961 1.137,-9.605 0,-14.043 -0.996,-4.305 -3.062,-8.301 -6.23,-11.805 -3.199,-3.585 -7.434,-6.679 -12.699,-9.296 -5.2,-2.649 -11.426,-4.715 -18.789,-6.368 -5.203,-1.132 -10.09,-1.679 -14.496,-1.679 -4.504,0 -8.364,0.547 -11.801,1.679 -3.305,1.172 -6.094,2.793 -8.293,4.922 -2.137,2.141 -3.582,4.856 -4.27,8.059 -0.515,2.848 -0.515,5.437 0.239,7.605 0.691,2.266 1.894,4.16 3.476,5.813 1.551,1.551 3.41,2.887 5.68,4.031 2.133,1.066 4.543,1.824 6.918,2.402 0.687,-3.332 1.683,-6.433 2.89,-9.289 1.344,-2.886 3.028,-5.371 4.922,-7.261 1.856,-2.063 4.098,-3.508 6.711,-4.336 2.547,-0.891 5.574,-0.996 8.813,-0.278 2.508,0.547 4.851,1.411 6.843,2.485 2,1.062 3.688,2.371 4.891,3.883 1.344,1.488 2.309,3.136 2.785,5.031 0.555,1.953 0.555,3.984 0.141,6.219 -0.445,2.101 -1.305,3.832 -2.375,5.304 -1.098,1.446 -2.652,2.754 -4.68,3.821 -2.062,1.003 -4.476,1.96 -7.367,2.75 -2.82,0.832 -6.23,1.691 -10.254,2.66 -3.891,0.957 -7.504,2.097 -10.809,3.367 -3.199,1.308 -6.089,2.93 -8.636,4.851 -2.512,1.997 -4.645,4.231 -6.336,6.821 -1.719,2.683 -2.957,5.808 -3.715,9.351 -0.93,4.621 -0.789,8.821 0.273,12.844 1.172,3.953 3.305,7.637 6.368,10.906 3.031,3.379 6.988,6.164 11.738,8.606 4.922,2.414 10.5,4.441 16.863,5.754 6.235,1.304 11.395,1.922 15.969,1.89 4.41,-0.066 8.125,-0.625 11.086,-1.726 2.992,-0.957 5.262,-2.442 6.848,-4.231 1.582,-1.89 2.648,-3.992 3.128,-6.187 0.997,-4.922 -0.101,-8.821 -3.371,-11.809 -3.234,-3.066 -8.156,-5.234 -14.691,-6.64 -0.484,2.468 -1.242,4.882 -2.277,7.293 -0.926,2.375 -2.168,4.472 -3.715,6.234 -1.582,1.812 -3.446,3.125 -5.543,4.051 -2.031,0.871 -4.406,1.035 -6.918,0.515 -2.375,-0.515 -4.473,-1.304 -6.262,-2.468 -1.687,-1.075 -3.101,-2.344 -4.23,-3.758 -1.039,-1.406 -1.793,-3.059 -2.168,-4.746 -0.317,-1.692 -0.317,-3.508 -0.036,-5.266 0.411,-2.07 1.27,-3.75 2.27,-5.059 1.168,-1.347 2.719,-2.48 4.711,-3.476 2,-0.93 4.375,-1.785 7.266,-2.481 2.925,-0.753 6.265,-1.582 10.218,-2.414 4.27,-1.023 8.094,-2.129 11.36,-3.543 3.34,-1.445 6.129,-3.093 8.5,-5.019 2.375,-2.07 4.234,-4.336 5.75,-6.922 1.511,-2.609 2.617,-5.676 3.304,-9.047" /><path
         id="path90"
         style="fill:#ffffff;fill-opacity:1;fill-rule:nonzero;stroke:none"
         d="m 289.199,518.438 c 0.961,3.476 1.067,7.16 0.274,11.015 -0.789,3.817 -2.168,6.57 -4.2,8.36 -2.031,1.789 -4.437,2.375 -7.293,1.789 -3.031,-0.657 -5.578,-2.336 -7.816,-5.161 -2.234,-2.925 -3.992,-6.336 -5.473,-10.332 -1.308,-4.089 -2.371,-8.464 -2.992,-13.347 -0.652,-4.746 -0.793,-9.434 -0.652,-13.938 l 1.683,0.278 c 4.614,1.035 8.61,2.441 12.325,4.539 3.679,1.992 6.605,4.472 9.086,7.297 2.375,2.886 4.089,6.062 5.058,9.5 z m 26.328,17.968 c 0.996,-4.89 0.551,-10.051 -1.207,-15.183 -1.82,-5.129 -4.711,-9.914 -8.738,-14.414 -4.168,-4.473 -9.328,-8.403 -15.594,-11.848 -6.226,-3.477 -13.316,-6.016 -21.133,-7.676 -0.996,-0.234 -2.062,-0.437 -3.335,-0.722 -1.204,-0.274 -2.411,-0.442 -3.582,-0.579 0.136,-1.171 0.246,-2.449 0.484,-3.718 0.172,-1.243 0.449,-2.344 0.687,-3.45 1.547,-7.086 4.336,-12.246 8.368,-15.41 4.128,-3.133 9.531,-4.031 16.175,-2.586 3.028,0.657 5.782,1.582 8.223,3.098 2.617,1.441 4.816,3.035 6.715,4.988 2.098,1.864 3.816,3.86 5.191,6.067 1.551,2.129 2.617,4.363 3.649,6.504 0.859,-0.793 1.617,-1.829 2.375,-3.137 0.687,-1.375 1.238,-2.715 1.515,-4.336 0.481,-2.274 0.243,-4.719 -0.687,-7.473 -0.828,-2.82 -2.617,-5.508 -5.059,-8.179 -2.511,-2.727 -5.922,-5.207 -10.187,-7.473 -4.336,-2.371 -9.5,-4.199 -15.832,-5.508 -5.575,-1.199 -11.051,-1.516 -16.211,-1.035 -5.406,0.477 -10.153,1.926 -14.563,4.269 -4.367,2.372 -8.117,5.711 -11.355,10.086 -3.098,4.297 -5.297,9.571 -6.676,15.938 -0.926,4.707 -1.309,9.601 -1.172,14.824 0.106,5.274 0.899,10.496 2.238,15.774 1.34,5.222 3.34,10.418 5.856,15.378 2.644,5.059 5.949,9.708 9.844,13.973 3.882,4.133 8.535,7.844 13.726,10.981 5.332,3.062 11.395,5.332 18.141,6.746 8.707,1.828 15.898,1.379 21.543,-1.414 5.609,-2.825 9.054,-7.61 10.601,-14.485" /><path
         id="path92"
         style="fill:#100f0d;fill-opacity:1;fill-rule:nonzero;stroke:none"
         d="m 289.473,529.453 c 0.793,-3.855 0.687,-7.539 -0.274,-11.015 -0.969,-3.438 -2.683,-6.614 -5.058,-9.5 -2.481,-2.825 -5.407,-5.305 -9.086,-7.297 -3.715,-2.098 -7.711,-3.504 -12.325,-4.539 l -1.683,-0.278 c -0.141,4.504 0,9.192 0.652,13.938 0.621,4.883 1.684,9.258 2.992,13.347 1.481,3.996 3.239,7.407 5.473,10.332 2.238,2.825 4.785,4.504 7.816,5.161 2.856,0.586 5.262,0 7.293,-1.789 2.032,-1.79 3.411,-4.543 4.2,-8.36" /><path
         id="path94"
         style="fill:#100f0d;fill-opacity:1;fill-rule:nonzero;stroke:none"
         d="m 1046.7,260.344 -16.22,47.847 -16.25,-47.847 z m 47.2,-53.879 h -22.71 c -4.78,0 -6.51,1.269 -8.23,6.484 l -6.08,17.117 h -53.04 l -6.063,-17.117 c -1.73,-5.215 -3.457,-6.484 -8.187,-6.484 h -22.754 c -4.785,0 -4.785,3.457 -3.688,6.023 L 1011.2,342.18 c 1.76,4.566 4.14,6.707 8.89,6.707 h 20.76 c 4.76,0 6.93,-2.141 8.9,-6.707 l 47.83,-129.692 c 1.08,-2.566 1.08,-6.023 -3.68,-6.023" /><path
         id="path96"
         style="fill:#100f0d;fill-opacity:1;fill-rule:nonzero;stroke:none"
         d="m 1162.71,203.215 c -25.73,0 -57.98,14.922 -57.98,48.914 v 51.086 c 0,33.973 32.25,48.933 57.98,48.933 26.86,0 53.51,-13.671 56.3,-41.132 0,-5.196 -1.74,-6.282 -6.71,-6.282 h -20.77 c -4.54,0 -4.77,4.121 -6.49,6.704 -4.56,7.156 -10.61,10.386 -22.33,10.386 -14.27,0 -24.01,-7.996 -24.01,-21.629 v -45.007 c 0,-13.887 9.74,-21.68 24.01,-21.68 11.72,0 21.04,4.324 22.76,14.746 0.64,4.305 1.07,7.793 5.84,7.793 h 21.21 c 4.75,0 6.49,-2.18 6.49,-7.402 0,-27.93 -29.44,-45.43 -56.3,-45.43" /><path
         id="path98"
         style="fill:#100f0d;fill-opacity:1;fill-rule:nonzero;stroke:none"
         d="m 1314.49,260.344 -16.28,47.847 -16.2,-47.847 z m 47.18,-53.879 h -22.72 c -4.78,0 -6.49,1.269 -8.25,6.484 l -6.05,17.117 h -53.04 l -6.04,-17.117 c -1.74,-5.215 -3.49,-6.484 -8.22,-6.484 h -22.77 c -4.77,0 -4.77,3.457 -3.68,6.023 l 48.08,129.692 c 1.72,4.566 4.11,6.707 8.86,6.707 h 20.79 c 4.77,0 6.93,-2.141 8.87,-6.707 l 47.86,-129.692 c 1.07,-2.566 1.07,-6.023 -3.69,-6.023" /><path
         id="path100"
         style="fill:#100f0d;fill-opacity:1;fill-rule:nonzero;stroke:none"
         d="m 1464.7,297.156 c 0,13.657 -9.97,21.66 -24.22,21.66 h -20.78 v -82.261 h 20.78 c 14.25,0 24.22,7.8 24.22,21.648 z m 33.98,3.039 v -45.007 c 0,-34.016 -32.44,-48.723 -58.2,-48.723 h -48.51 c -4.97,0 -6.28,2.375 -6.28,6.262 v 129.902 c 0,3.887 1.31,6.258 6.28,6.258 h 48.51 c 25.76,0 58.2,-14.934 58.2,-48.692" /><path
         id="path102"
         style="fill:#100f0d;fill-opacity:1;fill-rule:nonzero;stroke:none"
         d="m 1632.67,230.488 v -17.761 c 0,-3.887 -1.3,-6.262 -6.26,-6.262 h -97 c -4.98,0 -6.24,2.375 -6.24,6.262 v 129.902 c 0,3.887 1.26,6.258 6.24,6.258 h 93.3 c 5.01,0 6.31,-2.371 6.31,-6.258 v -17.988 c 0,-3.887 -1.3,-6.262 -6.31,-6.262 h -65.35 v -23.621 h 57.99 c 5.01,0 6.31,-2.348 6.31,-6.262 v -16.887 c 0,-3.894 -1.3,-6.289 -6.31,-6.289 h -57.99 v -28.57 h 69.05 c 4.96,0 6.26,-2.363 6.26,-6.262" /><path
         id="path104"
         style="fill:#100f0d;fill-opacity:1;fill-rule:nonzero;stroke:none"
         d="M 1793.95,342.844 V 212.727 c 0,-4.993 -2.37,-6.262 -6.25,-6.262 h -20.8 c -3.9,0 -6.26,1.269 -6.26,6.262 v 73.378 l -21.67,-37.851 c -1.09,-1.738 -3.01,-4.555 -6.25,-4.555 h -10.88 c -3.25,0 -4.97,2.817 -6.05,4.555 l -21.86,37.851 v -73.378 c 0,-4.993 -2.38,-6.262 -6.26,-6.262 h -21.43 c -3.93,0 -6.28,1.269 -6.28,6.262 v 130.117 c 0,3.902 1.28,6.238 6.28,6.238 h 21.43 c 7.35,0 8.23,-4.746 9.97,-7.324 l 29.66,-53.262 29.86,53.262 c 1.52,2.578 2.6,7.324 9.74,7.324 h 20.8 c 4.96,0 6.25,-2.336 6.25,-6.238" /><path
         id="path106"
         style="fill:#100f0d;fill-opacity:1;fill-rule:nonzero;stroke:none"
         d="m 1930.33,342.844 -44.58,-82.91 v -47.207 c 0,-4.993 -2.39,-6.262 -6.29,-6.262 h -21.64 c -4.12,0 -6.3,1.269 -6.3,6.262 v 47.207 l -46.31,82.91 c -1.07,2.39 -0.66,6.043 3.47,6.043 h 24.89 c 4.97,0 7.12,-0.645 10.18,-6.477 l 25.3,-46.57 24.47,46.57 c 2.83,5.832 4.96,6.477 9.97,6.477 h 23.39 c 4.11,0 4.55,-3.653 3.45,-6.043" /><path
         id="path108"
         style="fill:#ffffff;fill-opacity:1;fill-rule:nonzero;stroke:none"
         d="m 1185.67,663.77 c 0,34.597 -25.26,54.953 -61.55,54.953 h -52.73 V 509.895 h 52.73 c 36.29,0 61.55,19.812 61.55,54.949 z m 86.29,7.675 V 557.168 c 0,-86.277 -82.46,-123.645 -147.84,-123.645 h -123.08 c -12.626,0 -15.927,6.04 -15.927,15.918 v 329.707 c 0,9.915 3.301,15.969 15.927,15.969 h 123.08 c 65.38,0 147.84,-37.929 147.84,-123.672" /><path
         id="path110"
         style="fill:#ffffff;fill-opacity:1;fill-rule:nonzero;stroke:none"
         d="m 1590.09,494.543 v -45.102 c 0,-9.878 -3.32,-15.918 -15.96,-15.918 h -246.17 c -12.62,0 -15.93,6.04 -15.93,15.918 v 329.707 c 0,9.915 3.31,15.969 15.93,15.969 h 236.82 c 12.67,0 15.96,-6.054 15.96,-15.969 v -45.593 c 0,-9.895 -3.29,-15.926 -15.96,-15.926 h -165.92 v -59.914 h 147.24 c 12.63,0 15.95,-6.035 15.95,-15.938 v -42.859 c 0,-9.887 -3.32,-15.949 -15.95,-15.949 h -147.24 v -72.508 h 175.27 c 12.64,0 15.96,-6.047 15.96,-15.918" /><path
         id="path112"
         style="fill:#ffffff;fill-opacity:1;fill-rule:nonzero;stroke:none"
         d="M 1946.67,779.148 1829.05,450 c -6.57,-14.258 -10.39,-16.477 -22.51,-16.477 h -52.75 c -12.08,0 -15.93,2.219 -22.53,16.477 l -118.14,329.148 c -2.74,7.161 -0.57,15.969 9.86,15.969 H 1684 c 14.27,0 18.13,-4.414 22.53,-17.597 l 74.73,-227.52 74.2,227.52 c 4.37,13.183 8.24,17.597 23.05,17.597 h 58.26 c 10.45,0 12.62,-8.808 9.9,-15.969" /></g></g></svg>